%TF.GenerationSoftware,KiCad,Pcbnew,7.0.8-7.0.8~ubuntu23.04.1*%
%TF.CreationDate,2023-10-03T20:58:01+04:00*%
%TF.ProjectId,7segment_breakout,37736567-6d65-46e7-945f-627265616b6f,rev?*%
%TF.SameCoordinates,Original*%
%TF.FileFunction,Legend,Bot*%
%TF.FilePolarity,Positive*%
%FSLAX46Y46*%
G04 Gerber Fmt 4.6, Leading zero omitted, Abs format (unit mm)*
G04 Created by KiCad (PCBNEW 7.0.8-7.0.8~ubuntu23.04.1) date 2023-10-03 20:58:01*
%MOMM*%
%LPD*%
G01*
G04 APERTURE LIST*
%ADD10C,0.150000*%
%ADD11C,0.120000*%
G04 APERTURE END LIST*
D10*
X147327430Y-80219609D02*
X147188858Y-80267228D01*
X147188858Y-80267228D02*
X147142668Y-80314847D01*
X147142668Y-80314847D02*
X147096477Y-80410085D01*
X147096477Y-80410085D02*
X147096477Y-80552942D01*
X147096477Y-80552942D02*
X147142668Y-80648180D01*
X147142668Y-80648180D02*
X147188858Y-80695800D01*
X147188858Y-80695800D02*
X147281239Y-80743419D01*
X147281239Y-80743419D02*
X147650763Y-80743419D01*
X147650763Y-80743419D02*
X147650763Y-79743419D01*
X147650763Y-79743419D02*
X147327430Y-79743419D01*
X147327430Y-79743419D02*
X147235049Y-79791038D01*
X147235049Y-79791038D02*
X147188858Y-79838657D01*
X147188858Y-79838657D02*
X147142668Y-79933895D01*
X147142668Y-79933895D02*
X147142668Y-80029133D01*
X147142668Y-80029133D02*
X147188858Y-80124371D01*
X147188858Y-80124371D02*
X147235049Y-80171990D01*
X147235049Y-80171990D02*
X147327430Y-80219609D01*
X147327430Y-80219609D02*
X147650763Y-80219609D01*
X146126477Y-80648180D02*
X146172668Y-80695800D01*
X146172668Y-80695800D02*
X146311239Y-80743419D01*
X146311239Y-80743419D02*
X146403620Y-80743419D01*
X146403620Y-80743419D02*
X146542192Y-80695800D01*
X146542192Y-80695800D02*
X146634573Y-80600561D01*
X146634573Y-80600561D02*
X146680763Y-80505323D01*
X146680763Y-80505323D02*
X146726954Y-80314847D01*
X146726954Y-80314847D02*
X146726954Y-80171990D01*
X146726954Y-80171990D02*
X146680763Y-79981514D01*
X146680763Y-79981514D02*
X146634573Y-79886276D01*
X146634573Y-79886276D02*
X146542192Y-79791038D01*
X146542192Y-79791038D02*
X146403620Y-79743419D01*
X146403620Y-79743419D02*
X146311239Y-79743419D01*
X146311239Y-79743419D02*
X146172668Y-79791038D01*
X146172668Y-79791038D02*
X146126477Y-79838657D01*
X145710763Y-80743419D02*
X145710763Y-79743419D01*
X145710763Y-79743419D02*
X145479811Y-79743419D01*
X145479811Y-79743419D02*
X145341239Y-79791038D01*
X145341239Y-79791038D02*
X145248858Y-79886276D01*
X145248858Y-79886276D02*
X145202668Y-79981514D01*
X145202668Y-79981514D02*
X145156477Y-80171990D01*
X145156477Y-80171990D02*
X145156477Y-80314847D01*
X145156477Y-80314847D02*
X145202668Y-80505323D01*
X145202668Y-80505323D02*
X145248858Y-80600561D01*
X145248858Y-80600561D02*
X145341239Y-80695800D01*
X145341239Y-80695800D02*
X145479811Y-80743419D01*
X145479811Y-80743419D02*
X145710763Y-80743419D01*
X144140287Y-80076752D02*
X143770763Y-80076752D01*
X144001715Y-79743419D02*
X144001715Y-80600561D01*
X144001715Y-80600561D02*
X143955525Y-80695800D01*
X143955525Y-80695800D02*
X143863144Y-80743419D01*
X143863144Y-80743419D02*
X143770763Y-80743419D01*
X143308858Y-80743419D02*
X143401239Y-80695800D01*
X143401239Y-80695800D02*
X143447429Y-80648180D01*
X143447429Y-80648180D02*
X143493620Y-80552942D01*
X143493620Y-80552942D02*
X143493620Y-80267228D01*
X143493620Y-80267228D02*
X143447429Y-80171990D01*
X143447429Y-80171990D02*
X143401239Y-80124371D01*
X143401239Y-80124371D02*
X143308858Y-80076752D01*
X143308858Y-80076752D02*
X143170286Y-80076752D01*
X143170286Y-80076752D02*
X143077905Y-80124371D01*
X143077905Y-80124371D02*
X143031715Y-80171990D01*
X143031715Y-80171990D02*
X142985524Y-80267228D01*
X142985524Y-80267228D02*
X142985524Y-80552942D01*
X142985524Y-80552942D02*
X143031715Y-80648180D01*
X143031715Y-80648180D02*
X143077905Y-80695800D01*
X143077905Y-80695800D02*
X143170286Y-80743419D01*
X143170286Y-80743419D02*
X143308858Y-80743419D01*
X141923143Y-79743419D02*
X141276476Y-79743419D01*
X141276476Y-79743419D02*
X141692191Y-80743419D01*
X140906952Y-80362466D02*
X140167905Y-80362466D01*
X139752191Y-80695800D02*
X139613619Y-80743419D01*
X139613619Y-80743419D02*
X139382667Y-80743419D01*
X139382667Y-80743419D02*
X139290286Y-80695800D01*
X139290286Y-80695800D02*
X139244095Y-80648180D01*
X139244095Y-80648180D02*
X139197905Y-80552942D01*
X139197905Y-80552942D02*
X139197905Y-80457704D01*
X139197905Y-80457704D02*
X139244095Y-80362466D01*
X139244095Y-80362466D02*
X139290286Y-80314847D01*
X139290286Y-80314847D02*
X139382667Y-80267228D01*
X139382667Y-80267228D02*
X139567429Y-80219609D01*
X139567429Y-80219609D02*
X139659810Y-80171990D01*
X139659810Y-80171990D02*
X139706000Y-80124371D01*
X139706000Y-80124371D02*
X139752191Y-80029133D01*
X139752191Y-80029133D02*
X139752191Y-79933895D01*
X139752191Y-79933895D02*
X139706000Y-79838657D01*
X139706000Y-79838657D02*
X139659810Y-79791038D01*
X139659810Y-79791038D02*
X139567429Y-79743419D01*
X139567429Y-79743419D02*
X139336476Y-79743419D01*
X139336476Y-79743419D02*
X139197905Y-79791038D01*
X138412666Y-80695800D02*
X138505047Y-80743419D01*
X138505047Y-80743419D02*
X138689809Y-80743419D01*
X138689809Y-80743419D02*
X138782190Y-80695800D01*
X138782190Y-80695800D02*
X138828381Y-80600561D01*
X138828381Y-80600561D02*
X138828381Y-80219609D01*
X138828381Y-80219609D02*
X138782190Y-80124371D01*
X138782190Y-80124371D02*
X138689809Y-80076752D01*
X138689809Y-80076752D02*
X138505047Y-80076752D01*
X138505047Y-80076752D02*
X138412666Y-80124371D01*
X138412666Y-80124371D02*
X138366476Y-80219609D01*
X138366476Y-80219609D02*
X138366476Y-80314847D01*
X138366476Y-80314847D02*
X138828381Y-80410085D01*
X137535047Y-80076752D02*
X137535047Y-80886276D01*
X137535047Y-80886276D02*
X137581237Y-80981514D01*
X137581237Y-80981514D02*
X137627428Y-81029133D01*
X137627428Y-81029133D02*
X137719809Y-81076752D01*
X137719809Y-81076752D02*
X137858380Y-81076752D01*
X137858380Y-81076752D02*
X137950761Y-81029133D01*
X137535047Y-80695800D02*
X137627428Y-80743419D01*
X137627428Y-80743419D02*
X137812190Y-80743419D01*
X137812190Y-80743419D02*
X137904571Y-80695800D01*
X137904571Y-80695800D02*
X137950761Y-80648180D01*
X137950761Y-80648180D02*
X137996952Y-80552942D01*
X137996952Y-80552942D02*
X137996952Y-80267228D01*
X137996952Y-80267228D02*
X137950761Y-80171990D01*
X137950761Y-80171990D02*
X137904571Y-80124371D01*
X137904571Y-80124371D02*
X137812190Y-80076752D01*
X137812190Y-80076752D02*
X137627428Y-80076752D01*
X137627428Y-80076752D02*
X137535047Y-80124371D01*
X137073142Y-80743419D02*
X137073142Y-80076752D01*
X137073142Y-80171990D02*
X137026952Y-80124371D01*
X137026952Y-80124371D02*
X136934571Y-80076752D01*
X136934571Y-80076752D02*
X136795999Y-80076752D01*
X136795999Y-80076752D02*
X136703618Y-80124371D01*
X136703618Y-80124371D02*
X136657428Y-80219609D01*
X136657428Y-80219609D02*
X136657428Y-80743419D01*
X136657428Y-80219609D02*
X136611237Y-80124371D01*
X136611237Y-80124371D02*
X136518856Y-80076752D01*
X136518856Y-80076752D02*
X136380285Y-80076752D01*
X136380285Y-80076752D02*
X136287904Y-80124371D01*
X136287904Y-80124371D02*
X136241714Y-80219609D01*
X136241714Y-80219609D02*
X136241714Y-80743419D01*
X135410285Y-80695800D02*
X135502666Y-80743419D01*
X135502666Y-80743419D02*
X135687428Y-80743419D01*
X135687428Y-80743419D02*
X135779809Y-80695800D01*
X135779809Y-80695800D02*
X135826000Y-80600561D01*
X135826000Y-80600561D02*
X135826000Y-80219609D01*
X135826000Y-80219609D02*
X135779809Y-80124371D01*
X135779809Y-80124371D02*
X135687428Y-80076752D01*
X135687428Y-80076752D02*
X135502666Y-80076752D01*
X135502666Y-80076752D02*
X135410285Y-80124371D01*
X135410285Y-80124371D02*
X135364095Y-80219609D01*
X135364095Y-80219609D02*
X135364095Y-80314847D01*
X135364095Y-80314847D02*
X135826000Y-80410085D01*
X134948380Y-80076752D02*
X134948380Y-80743419D01*
X134948380Y-80171990D02*
X134902190Y-80124371D01*
X134902190Y-80124371D02*
X134809809Y-80076752D01*
X134809809Y-80076752D02*
X134671237Y-80076752D01*
X134671237Y-80076752D02*
X134578856Y-80124371D01*
X134578856Y-80124371D02*
X134532666Y-80219609D01*
X134532666Y-80219609D02*
X134532666Y-80743419D01*
X134209333Y-80076752D02*
X133839809Y-80076752D01*
X134070761Y-79743419D02*
X134070761Y-80600561D01*
X134070761Y-80600561D02*
X134024571Y-80695800D01*
X134024571Y-80695800D02*
X133932190Y-80743419D01*
X133932190Y-80743419D02*
X133839809Y-80743419D01*
X132454094Y-80219609D02*
X132315522Y-80267228D01*
X132315522Y-80267228D02*
X132269332Y-80314847D01*
X132269332Y-80314847D02*
X132223141Y-80410085D01*
X132223141Y-80410085D02*
X132223141Y-80552942D01*
X132223141Y-80552942D02*
X132269332Y-80648180D01*
X132269332Y-80648180D02*
X132315522Y-80695800D01*
X132315522Y-80695800D02*
X132407903Y-80743419D01*
X132407903Y-80743419D02*
X132777427Y-80743419D01*
X132777427Y-80743419D02*
X132777427Y-79743419D01*
X132777427Y-79743419D02*
X132454094Y-79743419D01*
X132454094Y-79743419D02*
X132361713Y-79791038D01*
X132361713Y-79791038D02*
X132315522Y-79838657D01*
X132315522Y-79838657D02*
X132269332Y-79933895D01*
X132269332Y-79933895D02*
X132269332Y-80029133D01*
X132269332Y-80029133D02*
X132315522Y-80124371D01*
X132315522Y-80124371D02*
X132361713Y-80171990D01*
X132361713Y-80171990D02*
X132454094Y-80219609D01*
X132454094Y-80219609D02*
X132777427Y-80219609D01*
X131807427Y-80743419D02*
X131807427Y-80076752D01*
X131807427Y-80267228D02*
X131761237Y-80171990D01*
X131761237Y-80171990D02*
X131715046Y-80124371D01*
X131715046Y-80124371D02*
X131622665Y-80076752D01*
X131622665Y-80076752D02*
X131530284Y-80076752D01*
X130837427Y-80695800D02*
X130929808Y-80743419D01*
X130929808Y-80743419D02*
X131114570Y-80743419D01*
X131114570Y-80743419D02*
X131206951Y-80695800D01*
X131206951Y-80695800D02*
X131253142Y-80600561D01*
X131253142Y-80600561D02*
X131253142Y-80219609D01*
X131253142Y-80219609D02*
X131206951Y-80124371D01*
X131206951Y-80124371D02*
X131114570Y-80076752D01*
X131114570Y-80076752D02*
X130929808Y-80076752D01*
X130929808Y-80076752D02*
X130837427Y-80124371D01*
X130837427Y-80124371D02*
X130791237Y-80219609D01*
X130791237Y-80219609D02*
X130791237Y-80314847D01*
X130791237Y-80314847D02*
X131253142Y-80410085D01*
X129959808Y-80743419D02*
X129959808Y-80219609D01*
X129959808Y-80219609D02*
X130005998Y-80124371D01*
X130005998Y-80124371D02*
X130098379Y-80076752D01*
X130098379Y-80076752D02*
X130283141Y-80076752D01*
X130283141Y-80076752D02*
X130375522Y-80124371D01*
X129959808Y-80695800D02*
X130052189Y-80743419D01*
X130052189Y-80743419D02*
X130283141Y-80743419D01*
X130283141Y-80743419D02*
X130375522Y-80695800D01*
X130375522Y-80695800D02*
X130421713Y-80600561D01*
X130421713Y-80600561D02*
X130421713Y-80505323D01*
X130421713Y-80505323D02*
X130375522Y-80410085D01*
X130375522Y-80410085D02*
X130283141Y-80362466D01*
X130283141Y-80362466D02*
X130052189Y-80362466D01*
X130052189Y-80362466D02*
X129959808Y-80314847D01*
X129497903Y-80743419D02*
X129497903Y-79743419D01*
X129405522Y-80362466D02*
X129128379Y-80743419D01*
X129128379Y-80076752D02*
X129497903Y-80457704D01*
X128574094Y-80743419D02*
X128666475Y-80695800D01*
X128666475Y-80695800D02*
X128712665Y-80648180D01*
X128712665Y-80648180D02*
X128758856Y-80552942D01*
X128758856Y-80552942D02*
X128758856Y-80267228D01*
X128758856Y-80267228D02*
X128712665Y-80171990D01*
X128712665Y-80171990D02*
X128666475Y-80124371D01*
X128666475Y-80124371D02*
X128574094Y-80076752D01*
X128574094Y-80076752D02*
X128435522Y-80076752D01*
X128435522Y-80076752D02*
X128343141Y-80124371D01*
X128343141Y-80124371D02*
X128296951Y-80171990D01*
X128296951Y-80171990D02*
X128250760Y-80267228D01*
X128250760Y-80267228D02*
X128250760Y-80552942D01*
X128250760Y-80552942D02*
X128296951Y-80648180D01*
X128296951Y-80648180D02*
X128343141Y-80695800D01*
X128343141Y-80695800D02*
X128435522Y-80743419D01*
X128435522Y-80743419D02*
X128574094Y-80743419D01*
X127419332Y-80076752D02*
X127419332Y-80743419D01*
X127835046Y-80076752D02*
X127835046Y-80600561D01*
X127835046Y-80600561D02*
X127788856Y-80695800D01*
X127788856Y-80695800D02*
X127696475Y-80743419D01*
X127696475Y-80743419D02*
X127557903Y-80743419D01*
X127557903Y-80743419D02*
X127465522Y-80695800D01*
X127465522Y-80695800D02*
X127419332Y-80648180D01*
X127095999Y-80076752D02*
X126726475Y-80076752D01*
X126957427Y-79743419D02*
X126957427Y-80600561D01*
X126957427Y-80600561D02*
X126911237Y-80695800D01*
X126911237Y-80695800D02*
X126818856Y-80743419D01*
X126818856Y-80743419D02*
X126726475Y-80743419D01*
X150379819Y-77136666D02*
X151094104Y-77136666D01*
X151094104Y-77136666D02*
X151236961Y-77089047D01*
X151236961Y-77089047D02*
X151332200Y-76993809D01*
X151332200Y-76993809D02*
X151379819Y-76850952D01*
X151379819Y-76850952D02*
X151379819Y-76755714D01*
X150379819Y-78089047D02*
X150379819Y-77612857D01*
X150379819Y-77612857D02*
X150856009Y-77565238D01*
X150856009Y-77565238D02*
X150808390Y-77612857D01*
X150808390Y-77612857D02*
X150760771Y-77708095D01*
X150760771Y-77708095D02*
X150760771Y-77946190D01*
X150760771Y-77946190D02*
X150808390Y-78041428D01*
X150808390Y-78041428D02*
X150856009Y-78089047D01*
X150856009Y-78089047D02*
X150951247Y-78136666D01*
X150951247Y-78136666D02*
X151189342Y-78136666D01*
X151189342Y-78136666D02*
X151284580Y-78089047D01*
X151284580Y-78089047D02*
X151332200Y-78041428D01*
X151332200Y-78041428D02*
X151379819Y-77946190D01*
X151379819Y-77946190D02*
X151379819Y-77708095D01*
X151379819Y-77708095D02*
X151332200Y-77612857D01*
X151332200Y-77612857D02*
X151284580Y-77565238D01*
X144599819Y-92924333D02*
X144123628Y-92591000D01*
X144599819Y-92352905D02*
X143599819Y-92352905D01*
X143599819Y-92352905D02*
X143599819Y-92733857D01*
X143599819Y-92733857D02*
X143647438Y-92829095D01*
X143647438Y-92829095D02*
X143695057Y-92876714D01*
X143695057Y-92876714D02*
X143790295Y-92924333D01*
X143790295Y-92924333D02*
X143933152Y-92924333D01*
X143933152Y-92924333D02*
X144028390Y-92876714D01*
X144028390Y-92876714D02*
X144076009Y-92829095D01*
X144076009Y-92829095D02*
X144123628Y-92733857D01*
X144123628Y-92733857D02*
X144123628Y-92352905D01*
X144028390Y-93495762D02*
X143980771Y-93400524D01*
X143980771Y-93400524D02*
X143933152Y-93352905D01*
X143933152Y-93352905D02*
X143837914Y-93305286D01*
X143837914Y-93305286D02*
X143790295Y-93305286D01*
X143790295Y-93305286D02*
X143695057Y-93352905D01*
X143695057Y-93352905D02*
X143647438Y-93400524D01*
X143647438Y-93400524D02*
X143599819Y-93495762D01*
X143599819Y-93495762D02*
X143599819Y-93686238D01*
X143599819Y-93686238D02*
X143647438Y-93781476D01*
X143647438Y-93781476D02*
X143695057Y-93829095D01*
X143695057Y-93829095D02*
X143790295Y-93876714D01*
X143790295Y-93876714D02*
X143837914Y-93876714D01*
X143837914Y-93876714D02*
X143933152Y-93829095D01*
X143933152Y-93829095D02*
X143980771Y-93781476D01*
X143980771Y-93781476D02*
X144028390Y-93686238D01*
X144028390Y-93686238D02*
X144028390Y-93495762D01*
X144028390Y-93495762D02*
X144076009Y-93400524D01*
X144076009Y-93400524D02*
X144123628Y-93352905D01*
X144123628Y-93352905D02*
X144218866Y-93305286D01*
X144218866Y-93305286D02*
X144409342Y-93305286D01*
X144409342Y-93305286D02*
X144504580Y-93352905D01*
X144504580Y-93352905D02*
X144552200Y-93400524D01*
X144552200Y-93400524D02*
X144599819Y-93495762D01*
X144599819Y-93495762D02*
X144599819Y-93686238D01*
X144599819Y-93686238D02*
X144552200Y-93781476D01*
X144552200Y-93781476D02*
X144504580Y-93829095D01*
X144504580Y-93829095D02*
X144409342Y-93876714D01*
X144409342Y-93876714D02*
X144218866Y-93876714D01*
X144218866Y-93876714D02*
X144123628Y-93829095D01*
X144123628Y-93829095D02*
X144076009Y-93781476D01*
X144076009Y-93781476D02*
X144028390Y-93686238D01*
X136979819Y-92908333D02*
X136503628Y-92575000D01*
X136979819Y-92336905D02*
X135979819Y-92336905D01*
X135979819Y-92336905D02*
X135979819Y-92717857D01*
X135979819Y-92717857D02*
X136027438Y-92813095D01*
X136027438Y-92813095D02*
X136075057Y-92860714D01*
X136075057Y-92860714D02*
X136170295Y-92908333D01*
X136170295Y-92908333D02*
X136313152Y-92908333D01*
X136313152Y-92908333D02*
X136408390Y-92860714D01*
X136408390Y-92860714D02*
X136456009Y-92813095D01*
X136456009Y-92813095D02*
X136503628Y-92717857D01*
X136503628Y-92717857D02*
X136503628Y-92336905D01*
X136313152Y-93765476D02*
X136979819Y-93765476D01*
X135932200Y-93527381D02*
X136646485Y-93289286D01*
X136646485Y-93289286D02*
X136646485Y-93908333D01*
X150534666Y-80344180D02*
X150582285Y-80391800D01*
X150582285Y-80391800D02*
X150725142Y-80439419D01*
X150725142Y-80439419D02*
X150820380Y-80439419D01*
X150820380Y-80439419D02*
X150963237Y-80391800D01*
X150963237Y-80391800D02*
X151058475Y-80296561D01*
X151058475Y-80296561D02*
X151106094Y-80201323D01*
X151106094Y-80201323D02*
X151153713Y-80010847D01*
X151153713Y-80010847D02*
X151153713Y-79867990D01*
X151153713Y-79867990D02*
X151106094Y-79677514D01*
X151106094Y-79677514D02*
X151058475Y-79582276D01*
X151058475Y-79582276D02*
X150963237Y-79487038D01*
X150963237Y-79487038D02*
X150820380Y-79439419D01*
X150820380Y-79439419D02*
X150725142Y-79439419D01*
X150725142Y-79439419D02*
X150582285Y-79487038D01*
X150582285Y-79487038D02*
X150534666Y-79534657D01*
X149582285Y-80439419D02*
X150153713Y-80439419D01*
X149867999Y-80439419D02*
X149867999Y-79439419D01*
X149867999Y-79439419D02*
X149963237Y-79582276D01*
X149963237Y-79582276D02*
X150058475Y-79677514D01*
X150058475Y-79677514D02*
X150153713Y-79725133D01*
X136979819Y-90892333D02*
X136503628Y-90559000D01*
X136979819Y-90320905D02*
X135979819Y-90320905D01*
X135979819Y-90320905D02*
X135979819Y-90701857D01*
X135979819Y-90701857D02*
X136027438Y-90797095D01*
X136027438Y-90797095D02*
X136075057Y-90844714D01*
X136075057Y-90844714D02*
X136170295Y-90892333D01*
X136170295Y-90892333D02*
X136313152Y-90892333D01*
X136313152Y-90892333D02*
X136408390Y-90844714D01*
X136408390Y-90844714D02*
X136456009Y-90797095D01*
X136456009Y-90797095D02*
X136503628Y-90701857D01*
X136503628Y-90701857D02*
X136503628Y-90320905D01*
X135979819Y-91749476D02*
X135979819Y-91559000D01*
X135979819Y-91559000D02*
X136027438Y-91463762D01*
X136027438Y-91463762D02*
X136075057Y-91416143D01*
X136075057Y-91416143D02*
X136217914Y-91320905D01*
X136217914Y-91320905D02*
X136408390Y-91273286D01*
X136408390Y-91273286D02*
X136789342Y-91273286D01*
X136789342Y-91273286D02*
X136884580Y-91320905D01*
X136884580Y-91320905D02*
X136932200Y-91368524D01*
X136932200Y-91368524D02*
X136979819Y-91463762D01*
X136979819Y-91463762D02*
X136979819Y-91654238D01*
X136979819Y-91654238D02*
X136932200Y-91749476D01*
X136932200Y-91749476D02*
X136884580Y-91797095D01*
X136884580Y-91797095D02*
X136789342Y-91844714D01*
X136789342Y-91844714D02*
X136551247Y-91844714D01*
X136551247Y-91844714D02*
X136456009Y-91797095D01*
X136456009Y-91797095D02*
X136408390Y-91749476D01*
X136408390Y-91749476D02*
X136360771Y-91654238D01*
X136360771Y-91654238D02*
X136360771Y-91463762D01*
X136360771Y-91463762D02*
X136408390Y-91368524D01*
X136408390Y-91368524D02*
X136456009Y-91320905D01*
X136456009Y-91320905D02*
X136551247Y-91273286D01*
X142059819Y-90892333D02*
X141583628Y-90559000D01*
X142059819Y-90320905D02*
X141059819Y-90320905D01*
X141059819Y-90320905D02*
X141059819Y-90701857D01*
X141059819Y-90701857D02*
X141107438Y-90797095D01*
X141107438Y-90797095D02*
X141155057Y-90844714D01*
X141155057Y-90844714D02*
X141250295Y-90892333D01*
X141250295Y-90892333D02*
X141393152Y-90892333D01*
X141393152Y-90892333D02*
X141488390Y-90844714D01*
X141488390Y-90844714D02*
X141536009Y-90797095D01*
X141536009Y-90797095D02*
X141583628Y-90701857D01*
X141583628Y-90701857D02*
X141583628Y-90320905D01*
X142059819Y-91844714D02*
X142059819Y-91273286D01*
X142059819Y-91559000D02*
X141059819Y-91559000D01*
X141059819Y-91559000D02*
X141202676Y-91463762D01*
X141202676Y-91463762D02*
X141297914Y-91368524D01*
X141297914Y-91368524D02*
X141345533Y-91273286D01*
X142059819Y-92908333D02*
X141583628Y-92575000D01*
X142059819Y-92336905D02*
X141059819Y-92336905D01*
X141059819Y-92336905D02*
X141059819Y-92717857D01*
X141059819Y-92717857D02*
X141107438Y-92813095D01*
X141107438Y-92813095D02*
X141155057Y-92860714D01*
X141155057Y-92860714D02*
X141250295Y-92908333D01*
X141250295Y-92908333D02*
X141393152Y-92908333D01*
X141393152Y-92908333D02*
X141488390Y-92860714D01*
X141488390Y-92860714D02*
X141536009Y-92813095D01*
X141536009Y-92813095D02*
X141583628Y-92717857D01*
X141583628Y-92717857D02*
X141583628Y-92336905D01*
X141059819Y-93241667D02*
X141059819Y-93860714D01*
X141059819Y-93860714D02*
X141440771Y-93527381D01*
X141440771Y-93527381D02*
X141440771Y-93670238D01*
X141440771Y-93670238D02*
X141488390Y-93765476D01*
X141488390Y-93765476D02*
X141536009Y-93813095D01*
X141536009Y-93813095D02*
X141631247Y-93860714D01*
X141631247Y-93860714D02*
X141869342Y-93860714D01*
X141869342Y-93860714D02*
X141964580Y-93813095D01*
X141964580Y-93813095D02*
X142012200Y-93765476D01*
X142012200Y-93765476D02*
X142059819Y-93670238D01*
X142059819Y-93670238D02*
X142059819Y-93384524D01*
X142059819Y-93384524D02*
X142012200Y-93289286D01*
X142012200Y-93289286D02*
X141964580Y-93241667D01*
X134439819Y-92908333D02*
X133963628Y-92575000D01*
X134439819Y-92336905D02*
X133439819Y-92336905D01*
X133439819Y-92336905D02*
X133439819Y-92717857D01*
X133439819Y-92717857D02*
X133487438Y-92813095D01*
X133487438Y-92813095D02*
X133535057Y-92860714D01*
X133535057Y-92860714D02*
X133630295Y-92908333D01*
X133630295Y-92908333D02*
X133773152Y-92908333D01*
X133773152Y-92908333D02*
X133868390Y-92860714D01*
X133868390Y-92860714D02*
X133916009Y-92813095D01*
X133916009Y-92813095D02*
X133963628Y-92717857D01*
X133963628Y-92717857D02*
X133963628Y-92336905D01*
X133439819Y-93813095D02*
X133439819Y-93336905D01*
X133439819Y-93336905D02*
X133916009Y-93289286D01*
X133916009Y-93289286D02*
X133868390Y-93336905D01*
X133868390Y-93336905D02*
X133820771Y-93432143D01*
X133820771Y-93432143D02*
X133820771Y-93670238D01*
X133820771Y-93670238D02*
X133868390Y-93765476D01*
X133868390Y-93765476D02*
X133916009Y-93813095D01*
X133916009Y-93813095D02*
X134011247Y-93860714D01*
X134011247Y-93860714D02*
X134249342Y-93860714D01*
X134249342Y-93860714D02*
X134344580Y-93813095D01*
X134344580Y-93813095D02*
X134392200Y-93765476D01*
X134392200Y-93765476D02*
X134439819Y-93670238D01*
X134439819Y-93670238D02*
X134439819Y-93432143D01*
X134439819Y-93432143D02*
X134392200Y-93336905D01*
X134392200Y-93336905D02*
X134344580Y-93289286D01*
X134439819Y-90892333D02*
X133963628Y-90559000D01*
X134439819Y-90320905D02*
X133439819Y-90320905D01*
X133439819Y-90320905D02*
X133439819Y-90701857D01*
X133439819Y-90701857D02*
X133487438Y-90797095D01*
X133487438Y-90797095D02*
X133535057Y-90844714D01*
X133535057Y-90844714D02*
X133630295Y-90892333D01*
X133630295Y-90892333D02*
X133773152Y-90892333D01*
X133773152Y-90892333D02*
X133868390Y-90844714D01*
X133868390Y-90844714D02*
X133916009Y-90797095D01*
X133916009Y-90797095D02*
X133963628Y-90701857D01*
X133963628Y-90701857D02*
X133963628Y-90320905D01*
X133439819Y-91225667D02*
X133439819Y-91892333D01*
X133439819Y-91892333D02*
X134439819Y-91463762D01*
X144599819Y-90892333D02*
X144123628Y-90559000D01*
X144599819Y-90320905D02*
X143599819Y-90320905D01*
X143599819Y-90320905D02*
X143599819Y-90701857D01*
X143599819Y-90701857D02*
X143647438Y-90797095D01*
X143647438Y-90797095D02*
X143695057Y-90844714D01*
X143695057Y-90844714D02*
X143790295Y-90892333D01*
X143790295Y-90892333D02*
X143933152Y-90892333D01*
X143933152Y-90892333D02*
X144028390Y-90844714D01*
X144028390Y-90844714D02*
X144076009Y-90797095D01*
X144076009Y-90797095D02*
X144123628Y-90701857D01*
X144123628Y-90701857D02*
X144123628Y-90320905D01*
X143695057Y-91273286D02*
X143647438Y-91320905D01*
X143647438Y-91320905D02*
X143599819Y-91416143D01*
X143599819Y-91416143D02*
X143599819Y-91654238D01*
X143599819Y-91654238D02*
X143647438Y-91749476D01*
X143647438Y-91749476D02*
X143695057Y-91797095D01*
X143695057Y-91797095D02*
X143790295Y-91844714D01*
X143790295Y-91844714D02*
X143885533Y-91844714D01*
X143885533Y-91844714D02*
X144028390Y-91797095D01*
X144028390Y-91797095D02*
X144599819Y-91225667D01*
X144599819Y-91225667D02*
X144599819Y-91844714D01*
D11*
%TO.C,J5*%
X132025000Y-78800000D02*
X132025000Y-76140000D01*
X147325000Y-78800000D02*
X132025000Y-78800000D01*
X147325000Y-78800000D02*
X147325000Y-76140000D01*
X148595000Y-78800000D02*
X149925000Y-78800000D01*
X149925000Y-78800000D02*
X149925000Y-77470000D01*
X147325000Y-76140000D02*
X132025000Y-76140000D01*
%TO.C,R8*%
X144880000Y-95657936D02*
X144880000Y-96112064D01*
X143410000Y-95657936D02*
X143410000Y-96112064D01*
%TO.C,R4*%
X137260000Y-95657936D02*
X137260000Y-96112064D01*
X135790000Y-95657936D02*
X135790000Y-96112064D01*
%TO.C,C1*%
X153550252Y-80745000D02*
X153027748Y-80745000D01*
X153550252Y-79275000D02*
X153027748Y-79275000D01*
%TO.C,R6*%
X135790000Y-88476064D02*
X135790000Y-88021936D01*
X137260000Y-88476064D02*
X137260000Y-88021936D01*
%TO.C,R1*%
X140870000Y-88476064D02*
X140870000Y-88021936D01*
X142340000Y-88476064D02*
X142340000Y-88021936D01*
%TO.C,R3*%
X142340000Y-95657936D02*
X142340000Y-96112064D01*
X140870000Y-95657936D02*
X140870000Y-96112064D01*
%TO.C,R5*%
X134720000Y-95657936D02*
X134720000Y-96112064D01*
X133250000Y-95657936D02*
X133250000Y-96112064D01*
%TO.C,R7*%
X133250000Y-88476064D02*
X133250000Y-88021936D01*
X134720000Y-88476064D02*
X134720000Y-88021936D01*
%TO.C,R2*%
X143410000Y-88476064D02*
X143410000Y-88021936D01*
X144880000Y-88476064D02*
X144880000Y-88021936D01*
%TD*%
M02*
