M48
; DRILL file {KiCad 7.0.8-7.0.8~ubuntu23.04.1} date Tue 03 Oct 2023 08:57:53 PM +04
; FORMAT={-:-/ absolute / inch / decimal}
; #@! TF.CreationDate,2023-10-03T20:57:53+04:00
; #@! TF.GenerationSoftware,Kicad,Pcbnew,7.0.8-7.0.8~ubuntu23.04.1
; #@! TF.FileFunction,Plated,1,2,PTH
FMAT,2
INCH
; #@! TA.AperFunction,Plated,PTH,ViaDrill
T1C0.0157
; #@! TA.AperFunction,Plated,PTH,ComponentDrill
T2C0.0300
; #@! TA.AperFunction,Plated,PTH,ComponentDrill
T3C0.0315
; #@! TA.AperFunction,Plated,PTH,ComponentDrill
T4C0.0394
%
G90
G05
T1
X5.165Y-3.265
X5.325Y-3.235
X5.45Y-3.6
X5.5Y-3.145
X5.895Y-3.73
T2
X5.275Y-3.325
X5.275Y-3.925
X5.375Y-3.325
X5.375Y-3.925
X5.475Y-3.325
X5.475Y-3.925
X5.575Y-3.325
X5.575Y-3.925
X5.675Y-3.325
X5.675Y-3.925
T3
X5.775Y-3.25
X5.775Y-3.35
X5.775Y-3.45
X5.775Y-3.55
X5.775Y-3.65
X5.775Y-3.75
X5.775Y-3.85
X5.775Y-3.95
X6.075Y-3.25
X6.075Y-3.35
X6.075Y-3.45
X6.075Y-3.55
X6.075Y-3.65
X6.075Y-3.75
X6.075Y-3.85
X6.075Y-3.95
T4
X5.05Y-3.7506
X5.05Y-3.8506
X5.05Y-3.9506
X5.15Y-3.4506
X5.15Y-3.5506
X5.15Y-3.6506
X5.15Y-3.7506
X5.15Y-3.8506
X5.15Y-3.9506
X5.2502Y-3.05
X5.3502Y-3.05
X5.4502Y-3.05
X5.5502Y-3.05
X5.6502Y-3.05
X5.7502Y-3.05
X5.8502Y-3.05
T0
M30
