%TF.GenerationSoftware,KiCad,Pcbnew,7.0.8-7.0.8~ubuntu23.04.1*%
%TF.CreationDate,2023-10-03T20:58:01+04:00*%
%TF.ProjectId,7segment_breakout,37736567-6d65-46e7-945f-627265616b6f,rev?*%
%TF.SameCoordinates,Original*%
%TF.FileFunction,Legend,Top*%
%TF.FilePolarity,Positive*%
%FSLAX46Y46*%
G04 Gerber Fmt 4.6, Leading zero omitted, Abs format (unit mm)*
G04 Created by KiCad (PCBNEW 7.0.8-7.0.8~ubuntu23.04.1) date 2023-10-03 20:58:01*
%MOMM*%
%LPD*%
G01*
G04 APERTURE LIST*
%ADD10C,0.150000*%
%ADD11C,0.100000*%
%ADD12C,0.250000*%
%ADD13C,0.120000*%
G04 APERTURE END LIST*
D10*
X127762000Y-93472000D02*
X127762000Y-86360000D01*
X126492000Y-89916000D02*
X126492000Y-93472000D01*
X126492000Y-93472000D02*
X129032000Y-93472000D01*
X129032000Y-89916000D02*
X126492000Y-89916000D01*
X127762000Y-86360000D02*
X129032000Y-86360000D01*
X129032000Y-86360000D02*
X129032000Y-93472000D01*
X126941769Y-80829209D02*
X127080341Y-80876828D01*
X127080341Y-80876828D02*
X127126531Y-80924447D01*
X127126531Y-80924447D02*
X127172722Y-81019685D01*
X127172722Y-81019685D02*
X127172722Y-81162542D01*
X127172722Y-81162542D02*
X127126531Y-81257780D01*
X127126531Y-81257780D02*
X127080341Y-81305400D01*
X127080341Y-81305400D02*
X126987960Y-81353019D01*
X126987960Y-81353019D02*
X126618436Y-81353019D01*
X126618436Y-81353019D02*
X126618436Y-80353019D01*
X126618436Y-80353019D02*
X126941769Y-80353019D01*
X126941769Y-80353019D02*
X127034150Y-80400638D01*
X127034150Y-80400638D02*
X127080341Y-80448257D01*
X127080341Y-80448257D02*
X127126531Y-80543495D01*
X127126531Y-80543495D02*
X127126531Y-80638733D01*
X127126531Y-80638733D02*
X127080341Y-80733971D01*
X127080341Y-80733971D02*
X127034150Y-80781590D01*
X127034150Y-80781590D02*
X126941769Y-80829209D01*
X126941769Y-80829209D02*
X126618436Y-80829209D01*
X128142722Y-81257780D02*
X128096531Y-81305400D01*
X128096531Y-81305400D02*
X127957960Y-81353019D01*
X127957960Y-81353019D02*
X127865579Y-81353019D01*
X127865579Y-81353019D02*
X127727007Y-81305400D01*
X127727007Y-81305400D02*
X127634626Y-81210161D01*
X127634626Y-81210161D02*
X127588436Y-81114923D01*
X127588436Y-81114923D02*
X127542245Y-80924447D01*
X127542245Y-80924447D02*
X127542245Y-80781590D01*
X127542245Y-80781590D02*
X127588436Y-80591114D01*
X127588436Y-80591114D02*
X127634626Y-80495876D01*
X127634626Y-80495876D02*
X127727007Y-80400638D01*
X127727007Y-80400638D02*
X127865579Y-80353019D01*
X127865579Y-80353019D02*
X127957960Y-80353019D01*
X127957960Y-80353019D02*
X128096531Y-80400638D01*
X128096531Y-80400638D02*
X128142722Y-80448257D01*
X128558436Y-81353019D02*
X128558436Y-80353019D01*
X128558436Y-80353019D02*
X128789388Y-80353019D01*
X128789388Y-80353019D02*
X128927960Y-80400638D01*
X128927960Y-80400638D02*
X129020341Y-80495876D01*
X129020341Y-80495876D02*
X129066531Y-80591114D01*
X129066531Y-80591114D02*
X129112722Y-80781590D01*
X129112722Y-80781590D02*
X129112722Y-80924447D01*
X129112722Y-80924447D02*
X129066531Y-81114923D01*
X129066531Y-81114923D02*
X129020341Y-81210161D01*
X129020341Y-81210161D02*
X128927960Y-81305400D01*
X128927960Y-81305400D02*
X128789388Y-81353019D01*
X128789388Y-81353019D02*
X128558436Y-81353019D01*
X130128912Y-80686352D02*
X130498436Y-80686352D01*
X130267484Y-80353019D02*
X130267484Y-81210161D01*
X130267484Y-81210161D02*
X130313674Y-81305400D01*
X130313674Y-81305400D02*
X130406055Y-81353019D01*
X130406055Y-81353019D02*
X130498436Y-81353019D01*
X130960341Y-81353019D02*
X130867960Y-81305400D01*
X130867960Y-81305400D02*
X130821770Y-81257780D01*
X130821770Y-81257780D02*
X130775579Y-81162542D01*
X130775579Y-81162542D02*
X130775579Y-80876828D01*
X130775579Y-80876828D02*
X130821770Y-80781590D01*
X130821770Y-80781590D02*
X130867960Y-80733971D01*
X130867960Y-80733971D02*
X130960341Y-80686352D01*
X130960341Y-80686352D02*
X131098913Y-80686352D01*
X131098913Y-80686352D02*
X131191294Y-80733971D01*
X131191294Y-80733971D02*
X131237484Y-80781590D01*
X131237484Y-80781590D02*
X131283675Y-80876828D01*
X131283675Y-80876828D02*
X131283675Y-81162542D01*
X131283675Y-81162542D02*
X131237484Y-81257780D01*
X131237484Y-81257780D02*
X131191294Y-81305400D01*
X131191294Y-81305400D02*
X131098913Y-81353019D01*
X131098913Y-81353019D02*
X130960341Y-81353019D01*
X132346056Y-80353019D02*
X132992723Y-80353019D01*
X132992723Y-80353019D02*
X132577008Y-81353019D01*
X133362247Y-80972066D02*
X134101295Y-80972066D01*
X134517008Y-81305400D02*
X134655580Y-81353019D01*
X134655580Y-81353019D02*
X134886532Y-81353019D01*
X134886532Y-81353019D02*
X134978913Y-81305400D01*
X134978913Y-81305400D02*
X135025104Y-81257780D01*
X135025104Y-81257780D02*
X135071294Y-81162542D01*
X135071294Y-81162542D02*
X135071294Y-81067304D01*
X135071294Y-81067304D02*
X135025104Y-80972066D01*
X135025104Y-80972066D02*
X134978913Y-80924447D01*
X134978913Y-80924447D02*
X134886532Y-80876828D01*
X134886532Y-80876828D02*
X134701770Y-80829209D01*
X134701770Y-80829209D02*
X134609389Y-80781590D01*
X134609389Y-80781590D02*
X134563199Y-80733971D01*
X134563199Y-80733971D02*
X134517008Y-80638733D01*
X134517008Y-80638733D02*
X134517008Y-80543495D01*
X134517008Y-80543495D02*
X134563199Y-80448257D01*
X134563199Y-80448257D02*
X134609389Y-80400638D01*
X134609389Y-80400638D02*
X134701770Y-80353019D01*
X134701770Y-80353019D02*
X134932723Y-80353019D01*
X134932723Y-80353019D02*
X135071294Y-80400638D01*
X135856533Y-81305400D02*
X135764152Y-81353019D01*
X135764152Y-81353019D02*
X135579390Y-81353019D01*
X135579390Y-81353019D02*
X135487009Y-81305400D01*
X135487009Y-81305400D02*
X135440818Y-81210161D01*
X135440818Y-81210161D02*
X135440818Y-80829209D01*
X135440818Y-80829209D02*
X135487009Y-80733971D01*
X135487009Y-80733971D02*
X135579390Y-80686352D01*
X135579390Y-80686352D02*
X135764152Y-80686352D01*
X135764152Y-80686352D02*
X135856533Y-80733971D01*
X135856533Y-80733971D02*
X135902723Y-80829209D01*
X135902723Y-80829209D02*
X135902723Y-80924447D01*
X135902723Y-80924447D02*
X135440818Y-81019685D01*
X136734152Y-80686352D02*
X136734152Y-81495876D01*
X136734152Y-81495876D02*
X136687962Y-81591114D01*
X136687962Y-81591114D02*
X136641771Y-81638733D01*
X136641771Y-81638733D02*
X136549390Y-81686352D01*
X136549390Y-81686352D02*
X136410819Y-81686352D01*
X136410819Y-81686352D02*
X136318438Y-81638733D01*
X136734152Y-81305400D02*
X136641771Y-81353019D01*
X136641771Y-81353019D02*
X136457009Y-81353019D01*
X136457009Y-81353019D02*
X136364628Y-81305400D01*
X136364628Y-81305400D02*
X136318438Y-81257780D01*
X136318438Y-81257780D02*
X136272247Y-81162542D01*
X136272247Y-81162542D02*
X136272247Y-80876828D01*
X136272247Y-80876828D02*
X136318438Y-80781590D01*
X136318438Y-80781590D02*
X136364628Y-80733971D01*
X136364628Y-80733971D02*
X136457009Y-80686352D01*
X136457009Y-80686352D02*
X136641771Y-80686352D01*
X136641771Y-80686352D02*
X136734152Y-80733971D01*
X137196057Y-81353019D02*
X137196057Y-80686352D01*
X137196057Y-80781590D02*
X137242247Y-80733971D01*
X137242247Y-80733971D02*
X137334628Y-80686352D01*
X137334628Y-80686352D02*
X137473200Y-80686352D01*
X137473200Y-80686352D02*
X137565581Y-80733971D01*
X137565581Y-80733971D02*
X137611771Y-80829209D01*
X137611771Y-80829209D02*
X137611771Y-81353019D01*
X137611771Y-80829209D02*
X137657962Y-80733971D01*
X137657962Y-80733971D02*
X137750343Y-80686352D01*
X137750343Y-80686352D02*
X137888914Y-80686352D01*
X137888914Y-80686352D02*
X137981295Y-80733971D01*
X137981295Y-80733971D02*
X138027485Y-80829209D01*
X138027485Y-80829209D02*
X138027485Y-81353019D01*
X138858914Y-81305400D02*
X138766533Y-81353019D01*
X138766533Y-81353019D02*
X138581771Y-81353019D01*
X138581771Y-81353019D02*
X138489390Y-81305400D01*
X138489390Y-81305400D02*
X138443199Y-81210161D01*
X138443199Y-81210161D02*
X138443199Y-80829209D01*
X138443199Y-80829209D02*
X138489390Y-80733971D01*
X138489390Y-80733971D02*
X138581771Y-80686352D01*
X138581771Y-80686352D02*
X138766533Y-80686352D01*
X138766533Y-80686352D02*
X138858914Y-80733971D01*
X138858914Y-80733971D02*
X138905104Y-80829209D01*
X138905104Y-80829209D02*
X138905104Y-80924447D01*
X138905104Y-80924447D02*
X138443199Y-81019685D01*
X139320819Y-80686352D02*
X139320819Y-81353019D01*
X139320819Y-80781590D02*
X139367009Y-80733971D01*
X139367009Y-80733971D02*
X139459390Y-80686352D01*
X139459390Y-80686352D02*
X139597962Y-80686352D01*
X139597962Y-80686352D02*
X139690343Y-80733971D01*
X139690343Y-80733971D02*
X139736533Y-80829209D01*
X139736533Y-80829209D02*
X139736533Y-81353019D01*
X140059866Y-80686352D02*
X140429390Y-80686352D01*
X140198438Y-80353019D02*
X140198438Y-81210161D01*
X140198438Y-81210161D02*
X140244628Y-81305400D01*
X140244628Y-81305400D02*
X140337009Y-81353019D01*
X140337009Y-81353019D02*
X140429390Y-81353019D01*
X141815105Y-80829209D02*
X141953677Y-80876828D01*
X141953677Y-80876828D02*
X141999867Y-80924447D01*
X141999867Y-80924447D02*
X142046058Y-81019685D01*
X142046058Y-81019685D02*
X142046058Y-81162542D01*
X142046058Y-81162542D02*
X141999867Y-81257780D01*
X141999867Y-81257780D02*
X141953677Y-81305400D01*
X141953677Y-81305400D02*
X141861296Y-81353019D01*
X141861296Y-81353019D02*
X141491772Y-81353019D01*
X141491772Y-81353019D02*
X141491772Y-80353019D01*
X141491772Y-80353019D02*
X141815105Y-80353019D01*
X141815105Y-80353019D02*
X141907486Y-80400638D01*
X141907486Y-80400638D02*
X141953677Y-80448257D01*
X141953677Y-80448257D02*
X141999867Y-80543495D01*
X141999867Y-80543495D02*
X141999867Y-80638733D01*
X141999867Y-80638733D02*
X141953677Y-80733971D01*
X141953677Y-80733971D02*
X141907486Y-80781590D01*
X141907486Y-80781590D02*
X141815105Y-80829209D01*
X141815105Y-80829209D02*
X141491772Y-80829209D01*
X142461772Y-81353019D02*
X142461772Y-80686352D01*
X142461772Y-80876828D02*
X142507962Y-80781590D01*
X142507962Y-80781590D02*
X142554153Y-80733971D01*
X142554153Y-80733971D02*
X142646534Y-80686352D01*
X142646534Y-80686352D02*
X142738915Y-80686352D01*
X143431772Y-81305400D02*
X143339391Y-81353019D01*
X143339391Y-81353019D02*
X143154629Y-81353019D01*
X143154629Y-81353019D02*
X143062248Y-81305400D01*
X143062248Y-81305400D02*
X143016057Y-81210161D01*
X143016057Y-81210161D02*
X143016057Y-80829209D01*
X143016057Y-80829209D02*
X143062248Y-80733971D01*
X143062248Y-80733971D02*
X143154629Y-80686352D01*
X143154629Y-80686352D02*
X143339391Y-80686352D01*
X143339391Y-80686352D02*
X143431772Y-80733971D01*
X143431772Y-80733971D02*
X143477962Y-80829209D01*
X143477962Y-80829209D02*
X143477962Y-80924447D01*
X143477962Y-80924447D02*
X143016057Y-81019685D01*
X144309391Y-81353019D02*
X144309391Y-80829209D01*
X144309391Y-80829209D02*
X144263201Y-80733971D01*
X144263201Y-80733971D02*
X144170820Y-80686352D01*
X144170820Y-80686352D02*
X143986058Y-80686352D01*
X143986058Y-80686352D02*
X143893677Y-80733971D01*
X144309391Y-81305400D02*
X144217010Y-81353019D01*
X144217010Y-81353019D02*
X143986058Y-81353019D01*
X143986058Y-81353019D02*
X143893677Y-81305400D01*
X143893677Y-81305400D02*
X143847486Y-81210161D01*
X143847486Y-81210161D02*
X143847486Y-81114923D01*
X143847486Y-81114923D02*
X143893677Y-81019685D01*
X143893677Y-81019685D02*
X143986058Y-80972066D01*
X143986058Y-80972066D02*
X144217010Y-80972066D01*
X144217010Y-80972066D02*
X144309391Y-80924447D01*
X144771296Y-81353019D02*
X144771296Y-80353019D01*
X144863677Y-80972066D02*
X145140820Y-81353019D01*
X145140820Y-80686352D02*
X144771296Y-81067304D01*
X145695105Y-81353019D02*
X145602724Y-81305400D01*
X145602724Y-81305400D02*
X145556534Y-81257780D01*
X145556534Y-81257780D02*
X145510343Y-81162542D01*
X145510343Y-81162542D02*
X145510343Y-80876828D01*
X145510343Y-80876828D02*
X145556534Y-80781590D01*
X145556534Y-80781590D02*
X145602724Y-80733971D01*
X145602724Y-80733971D02*
X145695105Y-80686352D01*
X145695105Y-80686352D02*
X145833677Y-80686352D01*
X145833677Y-80686352D02*
X145926058Y-80733971D01*
X145926058Y-80733971D02*
X145972248Y-80781590D01*
X145972248Y-80781590D02*
X146018439Y-80876828D01*
X146018439Y-80876828D02*
X146018439Y-81162542D01*
X146018439Y-81162542D02*
X145972248Y-81257780D01*
X145972248Y-81257780D02*
X145926058Y-81305400D01*
X145926058Y-81305400D02*
X145833677Y-81353019D01*
X145833677Y-81353019D02*
X145695105Y-81353019D01*
X146849867Y-80686352D02*
X146849867Y-81353019D01*
X146434153Y-80686352D02*
X146434153Y-81210161D01*
X146434153Y-81210161D02*
X146480343Y-81305400D01*
X146480343Y-81305400D02*
X146572724Y-81353019D01*
X146572724Y-81353019D02*
X146711296Y-81353019D01*
X146711296Y-81353019D02*
X146803677Y-81305400D01*
X146803677Y-81305400D02*
X146849867Y-81257780D01*
X147173200Y-80686352D02*
X147542724Y-80686352D01*
X147311772Y-80353019D02*
X147311772Y-81210161D01*
X147311772Y-81210161D02*
X147357962Y-81305400D01*
X147357962Y-81305400D02*
X147450343Y-81353019D01*
X147450343Y-81353019D02*
X147542724Y-81353019D01*
D11*
X128699371Y-92088687D02*
X128413657Y-92422020D01*
X128699371Y-92660115D02*
X128099371Y-92660115D01*
X128099371Y-92660115D02*
X128099371Y-92279163D01*
X128099371Y-92279163D02*
X128127942Y-92183925D01*
X128127942Y-92183925D02*
X128156514Y-92136306D01*
X128156514Y-92136306D02*
X128213657Y-92088687D01*
X128213657Y-92088687D02*
X128299371Y-92088687D01*
X128299371Y-92088687D02*
X128356514Y-92136306D01*
X128356514Y-92136306D02*
X128385085Y-92183925D01*
X128385085Y-92183925D02*
X128413657Y-92279163D01*
X128413657Y-92279163D02*
X128413657Y-92660115D01*
X128385085Y-91326782D02*
X128413657Y-91183925D01*
X128413657Y-91183925D02*
X128442228Y-91136306D01*
X128442228Y-91136306D02*
X128499371Y-91088687D01*
X128499371Y-91088687D02*
X128585085Y-91088687D01*
X128585085Y-91088687D02*
X128642228Y-91136306D01*
X128642228Y-91136306D02*
X128670800Y-91183925D01*
X128670800Y-91183925D02*
X128699371Y-91279163D01*
X128699371Y-91279163D02*
X128699371Y-91660115D01*
X128699371Y-91660115D02*
X128099371Y-91660115D01*
X128099371Y-91660115D02*
X128099371Y-91326782D01*
X128099371Y-91326782D02*
X128127942Y-91231544D01*
X128127942Y-91231544D02*
X128156514Y-91183925D01*
X128156514Y-91183925D02*
X128213657Y-91136306D01*
X128213657Y-91136306D02*
X128270800Y-91136306D01*
X128270800Y-91136306D02*
X128327942Y-91183925D01*
X128327942Y-91183925D02*
X128356514Y-91231544D01*
X128356514Y-91231544D02*
X128385085Y-91326782D01*
X128385085Y-91326782D02*
X128385085Y-91660115D01*
X128699371Y-90660115D02*
X128099371Y-90660115D01*
D12*
G36*
X145840636Y-78584488D02*
G01*
X145857144Y-78584919D01*
X145873385Y-78585637D01*
X145889359Y-78586642D01*
X145905066Y-78587934D01*
X145920507Y-78589513D01*
X145935680Y-78591380D01*
X145950587Y-78593533D01*
X145965228Y-78595974D01*
X145979601Y-78598701D01*
X145993708Y-78601716D01*
X146007548Y-78605018D01*
X146021121Y-78608607D01*
X146034428Y-78612484D01*
X146047467Y-78616647D01*
X146060240Y-78621097D01*
X146072746Y-78625835D01*
X146084986Y-78630860D01*
X146096959Y-78636172D01*
X146108664Y-78641771D01*
X146120104Y-78647657D01*
X146131276Y-78653830D01*
X146142182Y-78660290D01*
X146152821Y-78667038D01*
X146163193Y-78674073D01*
X146173298Y-78681394D01*
X146183137Y-78689003D01*
X146192708Y-78696899D01*
X146202013Y-78705082D01*
X146211052Y-78713553D01*
X146219823Y-78722310D01*
X146228328Y-78731355D01*
X146236569Y-78740672D01*
X146244548Y-78750287D01*
X146252265Y-78760199D01*
X146259721Y-78770409D01*
X146266915Y-78780917D01*
X146273848Y-78791722D01*
X146280519Y-78802825D01*
X146286928Y-78814226D01*
X146293076Y-78825925D01*
X146298962Y-78837921D01*
X146304587Y-78850215D01*
X146309950Y-78862806D01*
X146315051Y-78875695D01*
X146319891Y-78888882D01*
X146324469Y-78902367D01*
X146328785Y-78916149D01*
X146332840Y-78930229D01*
X146336633Y-78944606D01*
X146340165Y-78959281D01*
X146343435Y-78974254D01*
X146346444Y-78989525D01*
X146349191Y-79005093D01*
X146351676Y-79020959D01*
X146353900Y-79037122D01*
X146355862Y-79053584D01*
X146357562Y-79070342D01*
X146359001Y-79087399D01*
X146360178Y-79104753D01*
X146361094Y-79122405D01*
X146361748Y-79140355D01*
X146362140Y-79158602D01*
X146362271Y-79177147D01*
X146362147Y-79195449D01*
X146361774Y-79213485D01*
X146361153Y-79231254D01*
X146360283Y-79248756D01*
X146359165Y-79265992D01*
X146357799Y-79282961D01*
X146356184Y-79299664D01*
X146354321Y-79316100D01*
X146352209Y-79332269D01*
X146349849Y-79348171D01*
X146347240Y-79363807D01*
X146344383Y-79379176D01*
X146341278Y-79394278D01*
X146337924Y-79409114D01*
X146334321Y-79423683D01*
X146330471Y-79437986D01*
X146326371Y-79452022D01*
X146322024Y-79465791D01*
X146317427Y-79479293D01*
X146312583Y-79492529D01*
X146307490Y-79505498D01*
X146302148Y-79518201D01*
X146296558Y-79530637D01*
X146290720Y-79542806D01*
X146284633Y-79554708D01*
X146278298Y-79566344D01*
X146271714Y-79577713D01*
X146264882Y-79588816D01*
X146257802Y-79599652D01*
X146250473Y-79610221D01*
X146242895Y-79620523D01*
X146235069Y-79630559D01*
X146227032Y-79640307D01*
X146218784Y-79649745D01*
X146210326Y-79658874D01*
X146201657Y-79667694D01*
X146192777Y-79676204D01*
X146183687Y-79684404D01*
X146174386Y-79692295D01*
X146164874Y-79699877D01*
X146155151Y-79707149D01*
X146145218Y-79714112D01*
X146135075Y-79720765D01*
X146124720Y-79727109D01*
X146114155Y-79733143D01*
X146103380Y-79738868D01*
X146092393Y-79744283D01*
X146081196Y-79749389D01*
X146069789Y-79754186D01*
X146058170Y-79758673D01*
X146046341Y-79762851D01*
X146034302Y-79766719D01*
X146022051Y-79770278D01*
X146009590Y-79773527D01*
X145996919Y-79776467D01*
X145984036Y-79779097D01*
X145970944Y-79781418D01*
X145957640Y-79783429D01*
X145944126Y-79785131D01*
X145930401Y-79786524D01*
X145916465Y-79787607D01*
X145902319Y-79788381D01*
X145887962Y-79788845D01*
X145873394Y-79789000D01*
X145526374Y-79789000D01*
X145526374Y-78787872D01*
X145769347Y-78787872D01*
X145769347Y-79585472D01*
X145853464Y-79585472D01*
X145869693Y-79585073D01*
X145885407Y-79583877D01*
X145900605Y-79581883D01*
X145915288Y-79579092D01*
X145929456Y-79575503D01*
X145943109Y-79571117D01*
X145956247Y-79565933D01*
X145968869Y-79559952D01*
X145980976Y-79553173D01*
X145992568Y-79545596D01*
X146003645Y-79537223D01*
X146014207Y-79528051D01*
X146024253Y-79518082D01*
X146033784Y-79507316D01*
X146042800Y-79495752D01*
X146051301Y-79483391D01*
X146059287Y-79470232D01*
X146066757Y-79456275D01*
X146073712Y-79441521D01*
X146080152Y-79425970D01*
X146086077Y-79409621D01*
X146091487Y-79392474D01*
X146096381Y-79374531D01*
X146100760Y-79355789D01*
X146104624Y-79336250D01*
X146107973Y-79315914D01*
X146110807Y-79294779D01*
X146113125Y-79272848D01*
X146114928Y-79250119D01*
X146116216Y-79226592D01*
X146116989Y-79202268D01*
X146117247Y-79177147D01*
X146116971Y-79152252D01*
X146116143Y-79128210D01*
X146114763Y-79105021D01*
X146112832Y-79082686D01*
X146110349Y-79061204D01*
X146107313Y-79040575D01*
X146103727Y-79020800D01*
X146099588Y-79001878D01*
X146094897Y-78983809D01*
X146089655Y-78966594D01*
X146083860Y-78950232D01*
X146077514Y-78934724D01*
X146070616Y-78920068D01*
X146063167Y-78906266D01*
X146055165Y-78893317D01*
X146046612Y-78881222D01*
X146037482Y-78869918D01*
X146027680Y-78859343D01*
X146017204Y-78849498D01*
X146006055Y-78840382D01*
X145994233Y-78831995D01*
X145981738Y-78824337D01*
X145968569Y-78817409D01*
X145954727Y-78811210D01*
X145940212Y-78805740D01*
X145925024Y-78801000D01*
X145909163Y-78796989D01*
X145892629Y-78793707D01*
X145875421Y-78791154D01*
X145857540Y-78789331D01*
X145838986Y-78788237D01*
X145819759Y-78787872D01*
X145769347Y-78787872D01*
X145526374Y-78787872D01*
X145526374Y-78584345D01*
X145823862Y-78584345D01*
X145840636Y-78584488D01*
G37*
G36*
X139189217Y-79789000D02*
G01*
X138946830Y-79789000D01*
X138870919Y-79499425D01*
X138494883Y-79499425D01*
X138419265Y-79789000D01*
X138176000Y-79789000D01*
X138324552Y-79301295D01*
X138546174Y-79301295D01*
X138819921Y-79301295D01*
X138813972Y-79278604D01*
X138808178Y-79256490D01*
X138802539Y-79234953D01*
X138797056Y-79213993D01*
X138791727Y-79193611D01*
X138786554Y-79173807D01*
X138781535Y-79154579D01*
X138776672Y-79135929D01*
X138771964Y-79117857D01*
X138767411Y-79100361D01*
X138763013Y-79083443D01*
X138758771Y-79067103D01*
X138754683Y-79051340D01*
X138750751Y-79036154D01*
X138746973Y-79021545D01*
X138743351Y-79007514D01*
X138739884Y-78994060D01*
X138736572Y-78981184D01*
X138733416Y-78968885D01*
X138727567Y-78946019D01*
X138722340Y-78925462D01*
X138717733Y-78907215D01*
X138713746Y-78891277D01*
X138710380Y-78877649D01*
X138706495Y-78861536D01*
X138703450Y-78848278D01*
X138700580Y-78835650D01*
X138697027Y-78819794D01*
X138693784Y-78805059D01*
X138690853Y-78791446D01*
X138688234Y-78778954D01*
X138685398Y-78764915D01*
X138683048Y-78752628D01*
X138680676Y-78765244D01*
X138677775Y-78779673D01*
X138675074Y-78792522D01*
X138672033Y-78806533D01*
X138668653Y-78821704D01*
X138664934Y-78838036D01*
X138661923Y-78851047D01*
X138658721Y-78864711D01*
X138654744Y-78881173D01*
X138651337Y-78894961D01*
X138647325Y-78910998D01*
X138642709Y-78929284D01*
X138637488Y-78949821D01*
X138631663Y-78972608D01*
X138628523Y-78984845D01*
X138625233Y-78997645D01*
X138621792Y-79011007D01*
X138618199Y-79024931D01*
X138614455Y-79039418D01*
X138610560Y-79054468D01*
X138606514Y-79070079D01*
X138602317Y-79086254D01*
X138597969Y-79102991D01*
X138593469Y-79120290D01*
X138588819Y-79138152D01*
X138584017Y-79156576D01*
X138579064Y-79175563D01*
X138573960Y-79195112D01*
X138568705Y-79215224D01*
X138563299Y-79235898D01*
X138557742Y-79257135D01*
X138552033Y-79278934D01*
X138546174Y-79301295D01*
X138324552Y-79301295D01*
X138541191Y-78590060D01*
X138824611Y-78590060D01*
X139189217Y-79789000D01*
G37*
G36*
X132965318Y-79789000D02*
G01*
X132718829Y-79789000D01*
X132336344Y-78590060D01*
X132590454Y-78590060D01*
X132782429Y-79278752D01*
X132786750Y-79294157D01*
X132791359Y-79310963D01*
X132796257Y-79329171D01*
X132799683Y-79342087D01*
X132803237Y-79355626D01*
X132806919Y-79369788D01*
X132810729Y-79384572D01*
X132814667Y-79399979D01*
X132818734Y-79416009D01*
X132822929Y-79432661D01*
X132827252Y-79449936D01*
X132831703Y-79467833D01*
X132836283Y-79486353D01*
X132840990Y-79505496D01*
X132843392Y-79515301D01*
X132860685Y-79438780D01*
X132902890Y-79278752D01*
X133093986Y-78590060D01*
X133345458Y-78590060D01*
X132965318Y-79789000D01*
G37*
G36*
X133540656Y-79690570D02*
G01*
X133540798Y-79707041D01*
X133541224Y-79723036D01*
X133541934Y-79738554D01*
X133542928Y-79753596D01*
X133544206Y-79768163D01*
X133545767Y-79782252D01*
X133547613Y-79795866D01*
X133549742Y-79809003D01*
X133552156Y-79821664D01*
X133556308Y-79839762D01*
X133561100Y-79856789D01*
X133566530Y-79872744D01*
X133572599Y-79887628D01*
X133577000Y-79896955D01*
X133584186Y-79909892D01*
X133592006Y-79921557D01*
X133600459Y-79931950D01*
X133609547Y-79941070D01*
X133619268Y-79948917D01*
X133629622Y-79955492D01*
X133640611Y-79960794D01*
X133652233Y-79964824D01*
X133664488Y-79967581D01*
X133677378Y-79969066D01*
X133686323Y-79969348D01*
X133701766Y-79968179D01*
X133716441Y-79964671D01*
X133730349Y-79958825D01*
X133743489Y-79950640D01*
X133755862Y-79940116D01*
X133767467Y-79927254D01*
X133778304Y-79912053D01*
X133785102Y-79900620D01*
X133791560Y-79888148D01*
X133797676Y-79874636D01*
X133803450Y-79860085D01*
X133808884Y-79844494D01*
X133811473Y-79836309D01*
X133954208Y-79865203D01*
X133949740Y-79879678D01*
X133945016Y-79893694D01*
X133940038Y-79907250D01*
X133934805Y-79920347D01*
X133929317Y-79932984D01*
X133923575Y-79945161D01*
X133917577Y-79956879D01*
X133911325Y-79968138D01*
X133904819Y-79978937D01*
X133891041Y-79999156D01*
X133876245Y-80017537D01*
X133860429Y-80034080D01*
X133843595Y-80048785D01*
X133825741Y-80061652D01*
X133806869Y-80072681D01*
X133786978Y-80081871D01*
X133766067Y-80089224D01*
X133744138Y-80094738D01*
X133721190Y-80098415D01*
X133709334Y-80099563D01*
X133697223Y-80100253D01*
X133684857Y-80100482D01*
X133666775Y-80100076D01*
X133649238Y-80098855D01*
X133632245Y-80096821D01*
X133615798Y-80093973D01*
X133599895Y-80090312D01*
X133584538Y-80085837D01*
X133569725Y-80080548D01*
X133555458Y-80074446D01*
X133541735Y-80067530D01*
X133528557Y-80059801D01*
X133515925Y-80051258D01*
X133503837Y-80041901D01*
X133492294Y-80031730D01*
X133481296Y-80020746D01*
X133470843Y-80008949D01*
X133460936Y-79996337D01*
X133451637Y-79982901D01*
X133442938Y-79968708D01*
X133434839Y-79953759D01*
X133427340Y-79938053D01*
X133420441Y-79921591D01*
X133414142Y-79904372D01*
X133408442Y-79886396D01*
X133403343Y-79867664D01*
X133398844Y-79848175D01*
X133394944Y-79827930D01*
X133391645Y-79806928D01*
X133388945Y-79785169D01*
X133386845Y-79762654D01*
X133385345Y-79739383D01*
X133384446Y-79715354D01*
X133384146Y-79690570D01*
X133384435Y-79665780D01*
X133385304Y-79641778D01*
X133386752Y-79618562D01*
X133388780Y-79596134D01*
X133391387Y-79574492D01*
X133394573Y-79553637D01*
X133398339Y-79533570D01*
X133402684Y-79514289D01*
X133407608Y-79495795D01*
X133413111Y-79478088D01*
X133419194Y-79461169D01*
X133425856Y-79445036D01*
X133433098Y-79429690D01*
X133440918Y-79415131D01*
X133449318Y-79401359D01*
X133458298Y-79388374D01*
X133467856Y-79376176D01*
X133477994Y-79364765D01*
X133488712Y-79354141D01*
X133500008Y-79344304D01*
X133511884Y-79335254D01*
X133524339Y-79326991D01*
X133537374Y-79319514D01*
X133550988Y-79312825D01*
X133565181Y-79306923D01*
X133579954Y-79301808D01*
X133595305Y-79297479D01*
X133611236Y-79293938D01*
X133627747Y-79291184D01*
X133644837Y-79289216D01*
X133662506Y-79288036D01*
X133680754Y-79287642D01*
X133692757Y-79287864D01*
X133704513Y-79288530D01*
X133721683Y-79290362D01*
X133738296Y-79293193D01*
X133754353Y-79297022D01*
X133769854Y-79301851D01*
X133784798Y-79307679D01*
X133799186Y-79314506D01*
X133813017Y-79322332D01*
X133826292Y-79331157D01*
X133839011Y-79340981D01*
X133843127Y-79344478D01*
X133855130Y-79355620D01*
X133866520Y-79367733D01*
X133877297Y-79380818D01*
X133887461Y-79394873D01*
X133897012Y-79409900D01*
X133905950Y-79425898D01*
X133911568Y-79437103D01*
X133916914Y-79448739D01*
X133921987Y-79460807D01*
X133926787Y-79473307D01*
X133931315Y-79486238D01*
X133935571Y-79499601D01*
X133939554Y-79513396D01*
X133797404Y-79551815D01*
X133793361Y-79536460D01*
X133788850Y-79521989D01*
X133783872Y-79508400D01*
X133778427Y-79495694D01*
X133772515Y-79483872D01*
X133766135Y-79472932D01*
X133757504Y-79460500D01*
X133751975Y-79453703D01*
X133742320Y-79443641D01*
X133732220Y-79435285D01*
X133721677Y-79428633D01*
X133710691Y-79423688D01*
X133699260Y-79420447D01*
X133687386Y-79418913D01*
X133682513Y-79418776D01*
X133665335Y-79419838D01*
X133649265Y-79423023D01*
X133634304Y-79428331D01*
X133620451Y-79435763D01*
X133607706Y-79445319D01*
X133596069Y-79456997D01*
X133585541Y-79470799D01*
X133576120Y-79486725D01*
X133567809Y-79504773D01*
X133560605Y-79524946D01*
X133554510Y-79547241D01*
X133549522Y-79571660D01*
X133547444Y-79584666D01*
X133545644Y-79598202D01*
X133544120Y-79612270D01*
X133542873Y-79626868D01*
X133541903Y-79641997D01*
X133541211Y-79657657D01*
X133540795Y-79673848D01*
X133540656Y-79690570D01*
G37*
G36*
X134185458Y-79690570D02*
G01*
X134185599Y-79707041D01*
X134186025Y-79723036D01*
X134186735Y-79738554D01*
X134187729Y-79753596D01*
X134189007Y-79768163D01*
X134190568Y-79782252D01*
X134192414Y-79795866D01*
X134194543Y-79809003D01*
X134196957Y-79821664D01*
X134201109Y-79839762D01*
X134205901Y-79856789D01*
X134211331Y-79872744D01*
X134217400Y-79887628D01*
X134221801Y-79896955D01*
X134228987Y-79909892D01*
X134236807Y-79921557D01*
X134245260Y-79931950D01*
X134254348Y-79941070D01*
X134264069Y-79948917D01*
X134274423Y-79955492D01*
X134285412Y-79960794D01*
X134297034Y-79964824D01*
X134309289Y-79967581D01*
X134322179Y-79969066D01*
X134331124Y-79969348D01*
X134346567Y-79968179D01*
X134361243Y-79964671D01*
X134375150Y-79958825D01*
X134388291Y-79950640D01*
X134400663Y-79940116D01*
X134412268Y-79927254D01*
X134423105Y-79912053D01*
X134429903Y-79900620D01*
X134436361Y-79888148D01*
X134442477Y-79874636D01*
X134448251Y-79860085D01*
X134453685Y-79844494D01*
X134456274Y-79836309D01*
X134599009Y-79865203D01*
X134594541Y-79879678D01*
X134589817Y-79893694D01*
X134584839Y-79907250D01*
X134579606Y-79920347D01*
X134574118Y-79932984D01*
X134568376Y-79945161D01*
X134562379Y-79956879D01*
X134556127Y-79968138D01*
X134549620Y-79978937D01*
X134535842Y-79999156D01*
X134521046Y-80017537D01*
X134505230Y-80034080D01*
X134488396Y-80048785D01*
X134470542Y-80061652D01*
X134451670Y-80072681D01*
X134431779Y-80081871D01*
X134410869Y-80089224D01*
X134388939Y-80094738D01*
X134365991Y-80098415D01*
X134354135Y-80099563D01*
X134342024Y-80100253D01*
X134329658Y-80100482D01*
X134311576Y-80100076D01*
X134294039Y-80098855D01*
X134277046Y-80096821D01*
X134260599Y-80093973D01*
X134244696Y-80090312D01*
X134229339Y-80085837D01*
X134214526Y-80080548D01*
X134200259Y-80074446D01*
X134186536Y-80067530D01*
X134173358Y-80059801D01*
X134160726Y-80051258D01*
X134148638Y-80041901D01*
X134137095Y-80031730D01*
X134126097Y-80020746D01*
X134115645Y-80008949D01*
X134105737Y-79996337D01*
X134096438Y-79982901D01*
X134087739Y-79968708D01*
X134079640Y-79953759D01*
X134072141Y-79938053D01*
X134065242Y-79921591D01*
X134058943Y-79904372D01*
X134053244Y-79886396D01*
X134048144Y-79867664D01*
X134043645Y-79848175D01*
X134039745Y-79827930D01*
X134036446Y-79806928D01*
X134033746Y-79785169D01*
X134031646Y-79762654D01*
X134030147Y-79739383D01*
X134029247Y-79715354D01*
X134028947Y-79690570D01*
X134029236Y-79665780D01*
X134030105Y-79641778D01*
X134031554Y-79618562D01*
X134033581Y-79596134D01*
X134036188Y-79574492D01*
X134039374Y-79553637D01*
X134043140Y-79533570D01*
X134047485Y-79514289D01*
X134052409Y-79495795D01*
X134057912Y-79478088D01*
X134063995Y-79461169D01*
X134070657Y-79445036D01*
X134077899Y-79429690D01*
X134085719Y-79415131D01*
X134094119Y-79401359D01*
X134103099Y-79388374D01*
X134112657Y-79376176D01*
X134122795Y-79364765D01*
X134133513Y-79354141D01*
X134144809Y-79344304D01*
X134156685Y-79335254D01*
X134169141Y-79326991D01*
X134182175Y-79319514D01*
X134195789Y-79312825D01*
X134209982Y-79306923D01*
X134224755Y-79301808D01*
X134240106Y-79297479D01*
X134256038Y-79293938D01*
X134272548Y-79291184D01*
X134289638Y-79289216D01*
X134307307Y-79288036D01*
X134325555Y-79287642D01*
X134337558Y-79287864D01*
X134349314Y-79288530D01*
X134366484Y-79290362D01*
X134383097Y-79293193D01*
X134399154Y-79297022D01*
X134414655Y-79301851D01*
X134429599Y-79307679D01*
X134443987Y-79314506D01*
X134457818Y-79322332D01*
X134471093Y-79331157D01*
X134483812Y-79340981D01*
X134487928Y-79344478D01*
X134499931Y-79355620D01*
X134511321Y-79367733D01*
X134522098Y-79380818D01*
X134532263Y-79394873D01*
X134541813Y-79409900D01*
X134550751Y-79425898D01*
X134556369Y-79437103D01*
X134561715Y-79448739D01*
X134566788Y-79460807D01*
X134571588Y-79473307D01*
X134576116Y-79486238D01*
X134580372Y-79499601D01*
X134584355Y-79513396D01*
X134442206Y-79551815D01*
X134438162Y-79536460D01*
X134433651Y-79521989D01*
X134428673Y-79508400D01*
X134423228Y-79495694D01*
X134417316Y-79483872D01*
X134410936Y-79472932D01*
X134402305Y-79460500D01*
X134396776Y-79453703D01*
X134387121Y-79443641D01*
X134377021Y-79435285D01*
X134366478Y-79428633D01*
X134355492Y-79423688D01*
X134344061Y-79420447D01*
X134332188Y-79418913D01*
X134327314Y-79418776D01*
X134310136Y-79419838D01*
X134294066Y-79423023D01*
X134279105Y-79428331D01*
X134265252Y-79435763D01*
X134252507Y-79445319D01*
X134240870Y-79456997D01*
X134230342Y-79470799D01*
X134220922Y-79486725D01*
X134212610Y-79504773D01*
X134205406Y-79524946D01*
X134199311Y-79547241D01*
X134194324Y-79571660D01*
X134192246Y-79584666D01*
X134190445Y-79598202D01*
X134188921Y-79612270D01*
X134187674Y-79626868D01*
X134186704Y-79641997D01*
X134186012Y-79657657D01*
X134185596Y-79673848D01*
X134185458Y-79690570D01*
G37*
D10*
X126752579Y-87347419D02*
X126752579Y-86347419D01*
X126752579Y-86823609D02*
X127324007Y-86823609D01*
X127324007Y-87347419D02*
X127324007Y-86347419D01*
D11*
X127297474Y-89509019D02*
X126821284Y-89509019D01*
X126821284Y-89509019D02*
X126821284Y-88509019D01*
X128699371Y-88246925D02*
X128699371Y-88723115D01*
X128699371Y-88723115D02*
X128099371Y-88723115D01*
X128099371Y-88056448D02*
X128099371Y-87485020D01*
X128699371Y-87770734D02*
X128099371Y-87770734D01*
X127103504Y-91869582D02*
X127127314Y-91726725D01*
X127127314Y-91726725D02*
X127151123Y-91679106D01*
X127151123Y-91679106D02*
X127198742Y-91631487D01*
X127198742Y-91631487D02*
X127270171Y-91631487D01*
X127270171Y-91631487D02*
X127317790Y-91679106D01*
X127317790Y-91679106D02*
X127341600Y-91726725D01*
X127341600Y-91726725D02*
X127365409Y-91821963D01*
X127365409Y-91821963D02*
X127365409Y-92202915D01*
X127365409Y-92202915D02*
X126865409Y-92202915D01*
X126865409Y-92202915D02*
X126865409Y-91869582D01*
X126865409Y-91869582D02*
X126889219Y-91774344D01*
X126889219Y-91774344D02*
X126913028Y-91726725D01*
X126913028Y-91726725D02*
X126960647Y-91679106D01*
X126960647Y-91679106D02*
X127008266Y-91679106D01*
X127008266Y-91679106D02*
X127055885Y-91726725D01*
X127055885Y-91726725D02*
X127079695Y-91774344D01*
X127079695Y-91774344D02*
X127103504Y-91869582D01*
X127103504Y-91869582D02*
X127103504Y-92202915D01*
X127365409Y-91202915D02*
X126865409Y-91202915D01*
D12*
G36*
X147995979Y-79629289D02*
G01*
X147983443Y-79640365D01*
X147970897Y-79651090D01*
X147958341Y-79661463D01*
X147945773Y-79671484D01*
X147933194Y-79681154D01*
X147920605Y-79690472D01*
X147908004Y-79699438D01*
X147895393Y-79708053D01*
X147882771Y-79716316D01*
X147870138Y-79724228D01*
X147857494Y-79731787D01*
X147844840Y-79738996D01*
X147832174Y-79745852D01*
X147819497Y-79752357D01*
X147806810Y-79758511D01*
X147794112Y-79764313D01*
X147781403Y-79769763D01*
X147768683Y-79774861D01*
X147755952Y-79779608D01*
X147743210Y-79784004D01*
X147730457Y-79788047D01*
X147717694Y-79791739D01*
X147704920Y-79795080D01*
X147692134Y-79798069D01*
X147679338Y-79800706D01*
X147666531Y-79802991D01*
X147653713Y-79804925D01*
X147640885Y-79806508D01*
X147628045Y-79807738D01*
X147615194Y-79808617D01*
X147602333Y-79809145D01*
X147589461Y-79809321D01*
X147576107Y-79809161D01*
X147562936Y-79808682D01*
X147549948Y-79807883D01*
X147537144Y-79806765D01*
X147524523Y-79805328D01*
X147512085Y-79803572D01*
X147499830Y-79801496D01*
X147487758Y-79799100D01*
X147475870Y-79796386D01*
X147464164Y-79793352D01*
X147452642Y-79789998D01*
X147441303Y-79786325D01*
X147430147Y-79782333D01*
X147408385Y-79773391D01*
X147387356Y-79763171D01*
X147367059Y-79751673D01*
X147347495Y-79738898D01*
X147328664Y-79724846D01*
X147310566Y-79709515D01*
X147293200Y-79692908D01*
X147276567Y-79675023D01*
X147268526Y-79665601D01*
X147260667Y-79655860D01*
X147252992Y-79645800D01*
X147245545Y-79635429D01*
X147238334Y-79624797D01*
X147231359Y-79613903D01*
X147224621Y-79602747D01*
X147218120Y-79591329D01*
X147211855Y-79579650D01*
X147205826Y-79567709D01*
X147200034Y-79555506D01*
X147194478Y-79543042D01*
X147189159Y-79530316D01*
X147184076Y-79517328D01*
X147179229Y-79504079D01*
X147174619Y-79490568D01*
X147170245Y-79476795D01*
X147166108Y-79462760D01*
X147162207Y-79448464D01*
X147158542Y-79433906D01*
X147155114Y-79419086D01*
X147151923Y-79404005D01*
X147148967Y-79388662D01*
X147146248Y-79373057D01*
X147143766Y-79357191D01*
X147141520Y-79341062D01*
X147139510Y-79324672D01*
X147137737Y-79308021D01*
X147136201Y-79291108D01*
X147134900Y-79273933D01*
X147133836Y-79256496D01*
X147133009Y-79238798D01*
X147132418Y-79220837D01*
X147132063Y-79202616D01*
X147131945Y-79184132D01*
X147132394Y-79146333D01*
X147133743Y-79109733D01*
X147135989Y-79074333D01*
X147139135Y-79040134D01*
X147143179Y-79007134D01*
X147148122Y-78975335D01*
X147153964Y-78944735D01*
X147160705Y-78915335D01*
X147168344Y-78887136D01*
X147176882Y-78860136D01*
X147186319Y-78834336D01*
X147196654Y-78809736D01*
X147207888Y-78786337D01*
X147220021Y-78764137D01*
X147233053Y-78743137D01*
X147246983Y-78723337D01*
X147261813Y-78704738D01*
X147277541Y-78687338D01*
X147294167Y-78671138D01*
X147311693Y-78656138D01*
X147330117Y-78642338D01*
X147349440Y-78629739D01*
X147369661Y-78618339D01*
X147390781Y-78608139D01*
X147412800Y-78599139D01*
X147435718Y-78591339D01*
X147459535Y-78584739D01*
X147484250Y-78579339D01*
X147509864Y-78575139D01*
X147536377Y-78572139D01*
X147563788Y-78570339D01*
X147592099Y-78569739D01*
X147610424Y-78570067D01*
X147628323Y-78571049D01*
X147645796Y-78572686D01*
X147662844Y-78574978D01*
X147679465Y-78577925D01*
X147695661Y-78581527D01*
X147711430Y-78585784D01*
X147726774Y-78590695D01*
X147741692Y-78596262D01*
X147756184Y-78602483D01*
X147770250Y-78609359D01*
X147783890Y-78616890D01*
X147797105Y-78625076D01*
X147809893Y-78633917D01*
X147822255Y-78643413D01*
X147834192Y-78653563D01*
X147845759Y-78664340D01*
X147856939Y-78675794D01*
X147867732Y-78687926D01*
X147878137Y-78700734D01*
X147888156Y-78714220D01*
X147897788Y-78728383D01*
X147907033Y-78743223D01*
X147915891Y-78758740D01*
X147924362Y-78774935D01*
X147932446Y-78791807D01*
X147940144Y-78809356D01*
X147947454Y-78827582D01*
X147954377Y-78846485D01*
X147960913Y-78866066D01*
X147967062Y-78886323D01*
X147972824Y-78907258D01*
X147746851Y-78955838D01*
X147741138Y-78934191D01*
X147734917Y-78913941D01*
X147728187Y-78895087D01*
X147720949Y-78877630D01*
X147713203Y-78861570D01*
X147704948Y-78846906D01*
X147696185Y-78833638D01*
X147686914Y-78821767D01*
X147677134Y-78811293D01*
X147666846Y-78802215D01*
X147656050Y-78794534D01*
X147644745Y-78788250D01*
X147632932Y-78783362D01*
X147620611Y-78779870D01*
X147607781Y-78777775D01*
X147594443Y-78777077D01*
X147580752Y-78777453D01*
X147567520Y-78778580D01*
X147554749Y-78780459D01*
X147542438Y-78783090D01*
X147530587Y-78786472D01*
X147519197Y-78790606D01*
X147508266Y-78795492D01*
X147492734Y-78804229D01*
X147478237Y-78814658D01*
X147464776Y-78826778D01*
X147456377Y-78835797D01*
X147448438Y-78845568D01*
X147440960Y-78856091D01*
X147433942Y-78867365D01*
X147430605Y-78873284D01*
X147424288Y-78885773D01*
X147418378Y-78899187D01*
X147412875Y-78913526D01*
X147407781Y-78928790D01*
X147403094Y-78944980D01*
X147398814Y-78962094D01*
X147394942Y-78980134D01*
X147391478Y-78999100D01*
X147388421Y-79018990D01*
X147385771Y-79039806D01*
X147383530Y-79061547D01*
X147381696Y-79084214D01*
X147380269Y-79107806D01*
X147379250Y-79132322D01*
X147378639Y-79157765D01*
X147378486Y-79170833D01*
X147378435Y-79184132D01*
X147378650Y-79208623D01*
X147379296Y-79232404D01*
X147380372Y-79255476D01*
X147381879Y-79277839D01*
X147383816Y-79299492D01*
X147386184Y-79320436D01*
X147388982Y-79340670D01*
X147392210Y-79360195D01*
X147395869Y-79379010D01*
X147399959Y-79397116D01*
X147404479Y-79414512D01*
X147409429Y-79431199D01*
X147414810Y-79447176D01*
X147420622Y-79462445D01*
X147426864Y-79477003D01*
X147433536Y-79490852D01*
X147440685Y-79503887D01*
X147448282Y-79516080D01*
X147456329Y-79527432D01*
X147464824Y-79537944D01*
X147473768Y-79547614D01*
X147483160Y-79556444D01*
X147493002Y-79564433D01*
X147503292Y-79571581D01*
X147514031Y-79577888D01*
X147525219Y-79583354D01*
X147536855Y-79587979D01*
X147548941Y-79591763D01*
X147561475Y-79594706D01*
X147574458Y-79596808D01*
X147587890Y-79598070D01*
X147601771Y-79598490D01*
X147615489Y-79598071D01*
X147629351Y-79596816D01*
X147643356Y-79594723D01*
X147657504Y-79591792D01*
X147668925Y-79588846D01*
X147680438Y-79585363D01*
X147692043Y-79581344D01*
X147703505Y-79576869D01*
X147714592Y-79572017D01*
X147725304Y-79566788D01*
X147738165Y-79559722D01*
X147750440Y-79552066D01*
X147762128Y-79543821D01*
X147773229Y-79534987D01*
X147773229Y-79333364D01*
X147547549Y-79333364D01*
X147547549Y-79138727D01*
X147995979Y-79138727D01*
X147995979Y-79629289D01*
G37*
G36*
X148690898Y-79789000D02*
G01*
X148374360Y-78892653D01*
X148375784Y-78906493D01*
X148377163Y-78920074D01*
X148378497Y-78933395D01*
X148379786Y-78946457D01*
X148381030Y-78959258D01*
X148383382Y-78984081D01*
X148385552Y-79007865D01*
X148387542Y-79030610D01*
X148389351Y-79052315D01*
X148390979Y-79072981D01*
X148392426Y-79092607D01*
X148393692Y-79111194D01*
X148394778Y-79128742D01*
X148395682Y-79145250D01*
X148396406Y-79160719D01*
X148396949Y-79175149D01*
X148397310Y-79188539D01*
X148397514Y-79206676D01*
X148397514Y-79789000D01*
X148185609Y-79789000D01*
X148185609Y-78590060D01*
X148463459Y-78590060D01*
X148787325Y-79510221D01*
X148785901Y-79497274D01*
X148784522Y-79484509D01*
X148781899Y-79459527D01*
X148779457Y-79435275D01*
X148777195Y-79411751D01*
X148775115Y-79388957D01*
X148773216Y-79366892D01*
X148771497Y-79345557D01*
X148769960Y-79324950D01*
X148768603Y-79305073D01*
X148767427Y-79285926D01*
X148766432Y-79267507D01*
X148765618Y-79249818D01*
X148764985Y-79232858D01*
X148764533Y-79216628D01*
X148764262Y-79201127D01*
X148764171Y-79186355D01*
X148764171Y-78590060D01*
X148976076Y-78590060D01*
X148976076Y-79789000D01*
X148690898Y-79789000D01*
G37*
G36*
X149508105Y-78584488D02*
G01*
X149524613Y-78584919D01*
X149540854Y-78585637D01*
X149556828Y-78586642D01*
X149572535Y-78587934D01*
X149587976Y-78589513D01*
X149603149Y-78591380D01*
X149618056Y-78593533D01*
X149632697Y-78595974D01*
X149647070Y-78598701D01*
X149661177Y-78601716D01*
X149675017Y-78605018D01*
X149688590Y-78608607D01*
X149701897Y-78612484D01*
X149714936Y-78616647D01*
X149727709Y-78621097D01*
X149740215Y-78625835D01*
X149752455Y-78630860D01*
X149764427Y-78636172D01*
X149776133Y-78641771D01*
X149787573Y-78647657D01*
X149798745Y-78653830D01*
X149809651Y-78660290D01*
X149820289Y-78667038D01*
X149830662Y-78674073D01*
X149840767Y-78681394D01*
X149850606Y-78689003D01*
X149860177Y-78696899D01*
X149869482Y-78705082D01*
X149878521Y-78713553D01*
X149887292Y-78722310D01*
X149895797Y-78731355D01*
X149904038Y-78740672D01*
X149912017Y-78750287D01*
X149919734Y-78760199D01*
X149927190Y-78770409D01*
X149934384Y-78780917D01*
X149941317Y-78791722D01*
X149947988Y-78802825D01*
X149954397Y-78814226D01*
X149960545Y-78825925D01*
X149966431Y-78837921D01*
X149972056Y-78850215D01*
X149977419Y-78862806D01*
X149982520Y-78875695D01*
X149987360Y-78888882D01*
X149991938Y-78902367D01*
X149996254Y-78916149D01*
X150000309Y-78930229D01*
X150004102Y-78944606D01*
X150007634Y-78959281D01*
X150010904Y-78974254D01*
X150013913Y-78989525D01*
X150016660Y-79005093D01*
X150019145Y-79020959D01*
X150021368Y-79037122D01*
X150023331Y-79053584D01*
X150025031Y-79070342D01*
X150026470Y-79087399D01*
X150027647Y-79104753D01*
X150028563Y-79122405D01*
X150029217Y-79140355D01*
X150029609Y-79158602D01*
X150029740Y-79177147D01*
X150029616Y-79195449D01*
X150029243Y-79213485D01*
X150028622Y-79231254D01*
X150027752Y-79248756D01*
X150026634Y-79265992D01*
X150025268Y-79282961D01*
X150023653Y-79299664D01*
X150021790Y-79316100D01*
X150019678Y-79332269D01*
X150017318Y-79348171D01*
X150014709Y-79363807D01*
X150011852Y-79379176D01*
X150008747Y-79394278D01*
X150005393Y-79409114D01*
X150001790Y-79423683D01*
X149997939Y-79437986D01*
X149993840Y-79452022D01*
X149989492Y-79465791D01*
X149984896Y-79479293D01*
X149980052Y-79492529D01*
X149974959Y-79505498D01*
X149969617Y-79518201D01*
X149964027Y-79530637D01*
X149958189Y-79542806D01*
X149952102Y-79554708D01*
X149945767Y-79566344D01*
X149939183Y-79577713D01*
X149932351Y-79588816D01*
X149925271Y-79599652D01*
X149917942Y-79610221D01*
X149910364Y-79620523D01*
X149902538Y-79630559D01*
X149894501Y-79640307D01*
X149886253Y-79649745D01*
X149877795Y-79658874D01*
X149869126Y-79667694D01*
X149860246Y-79676204D01*
X149851156Y-79684404D01*
X149841855Y-79692295D01*
X149832343Y-79699877D01*
X149822620Y-79707149D01*
X149812687Y-79714112D01*
X149802544Y-79720765D01*
X149792189Y-79727109D01*
X149781624Y-79733143D01*
X149770849Y-79738868D01*
X149759862Y-79744283D01*
X149748665Y-79749389D01*
X149737258Y-79754186D01*
X149725639Y-79758673D01*
X149713810Y-79762851D01*
X149701771Y-79766719D01*
X149689520Y-79770278D01*
X149677059Y-79773527D01*
X149664388Y-79776467D01*
X149651505Y-79779097D01*
X149638412Y-79781418D01*
X149625109Y-79783429D01*
X149611595Y-79785131D01*
X149597870Y-79786524D01*
X149583934Y-79787607D01*
X149569788Y-79788381D01*
X149555431Y-79788845D01*
X149540863Y-79789000D01*
X149193843Y-79789000D01*
X149193843Y-78787872D01*
X149436816Y-78787872D01*
X149436816Y-79585472D01*
X149520933Y-79585472D01*
X149537162Y-79585073D01*
X149552876Y-79583877D01*
X149568074Y-79581883D01*
X149582757Y-79579092D01*
X149596925Y-79575503D01*
X149610578Y-79571117D01*
X149623716Y-79565933D01*
X149636338Y-79559952D01*
X149648445Y-79553173D01*
X149660037Y-79545596D01*
X149671114Y-79537223D01*
X149681676Y-79528051D01*
X149691722Y-79518082D01*
X149701253Y-79507316D01*
X149710269Y-79495752D01*
X149718770Y-79483391D01*
X149726756Y-79470232D01*
X149734226Y-79456275D01*
X149741181Y-79441521D01*
X149747621Y-79425970D01*
X149753546Y-79409621D01*
X149758955Y-79392474D01*
X149763850Y-79374531D01*
X149768229Y-79355789D01*
X149772093Y-79336250D01*
X149775442Y-79315914D01*
X149778275Y-79294779D01*
X149780594Y-79272848D01*
X149782397Y-79250119D01*
X149783685Y-79226592D01*
X149784458Y-79202268D01*
X149784715Y-79177147D01*
X149784440Y-79152252D01*
X149783612Y-79128210D01*
X149782232Y-79105021D01*
X149780301Y-79082686D01*
X149777818Y-79061204D01*
X149774782Y-79040575D01*
X149771195Y-79020800D01*
X149767057Y-79001878D01*
X149762366Y-78983809D01*
X149757124Y-78966594D01*
X149751329Y-78950232D01*
X149744983Y-78934724D01*
X149738085Y-78920068D01*
X149730636Y-78906266D01*
X149722634Y-78893317D01*
X149714080Y-78881222D01*
X149704951Y-78869918D01*
X149695149Y-78859343D01*
X149684673Y-78849498D01*
X149673524Y-78840382D01*
X149661702Y-78831995D01*
X149649206Y-78824337D01*
X149636038Y-78817409D01*
X149622196Y-78811210D01*
X149607681Y-78805740D01*
X149592493Y-78801000D01*
X149576632Y-78796989D01*
X149560098Y-78793707D01*
X149542890Y-78791154D01*
X149525009Y-78789331D01*
X149506455Y-78788237D01*
X149487228Y-78787872D01*
X149436816Y-78787872D01*
X149193843Y-78787872D01*
X149193843Y-78584345D01*
X149491331Y-78584345D01*
X149508105Y-78584488D01*
G37*
G36*
X141029854Y-78590369D02*
G01*
X141051292Y-78591296D01*
X141072050Y-78592840D01*
X141092128Y-78595002D01*
X141111526Y-78597781D01*
X141130243Y-78601178D01*
X141148281Y-78605193D01*
X141165639Y-78609826D01*
X141182316Y-78615076D01*
X141198314Y-78620944D01*
X141213631Y-78627429D01*
X141228269Y-78634532D01*
X141242226Y-78642253D01*
X141255503Y-78650592D01*
X141268101Y-78659548D01*
X141280018Y-78669122D01*
X141291268Y-78679276D01*
X141301793Y-78689973D01*
X141311593Y-78701214D01*
X141320666Y-78712998D01*
X141329013Y-78725326D01*
X141336635Y-78738196D01*
X141343530Y-78751610D01*
X141349700Y-78765567D01*
X141355144Y-78780067D01*
X141359862Y-78795111D01*
X141363854Y-78810698D01*
X141367121Y-78826828D01*
X141369661Y-78843501D01*
X141371476Y-78860718D01*
X141372565Y-78878477D01*
X141372928Y-78896780D01*
X141372715Y-78909631D01*
X141371597Y-78928428D01*
X141369520Y-78946650D01*
X141366486Y-78964297D01*
X141362493Y-78981370D01*
X141357542Y-78997867D01*
X141351633Y-79013790D01*
X141344765Y-79029138D01*
X141336939Y-79043910D01*
X141328155Y-79058108D01*
X141318413Y-79071732D01*
X141307728Y-79084617D01*
X141296008Y-79096721D01*
X141283253Y-79108044D01*
X141269462Y-79118585D01*
X141254635Y-79128345D01*
X141244175Y-79134417D01*
X141233256Y-79140143D01*
X141221875Y-79145520D01*
X141210035Y-79150551D01*
X141197734Y-79155234D01*
X141184973Y-79159571D01*
X141171752Y-79163559D01*
X141158071Y-79167201D01*
X141151057Y-79168891D01*
X141168417Y-79171100D01*
X141185253Y-79173758D01*
X141201564Y-79176865D01*
X141217351Y-79180421D01*
X141232614Y-79184426D01*
X141247352Y-79188880D01*
X141261565Y-79193783D01*
X141275255Y-79199135D01*
X141288420Y-79204936D01*
X141301061Y-79211185D01*
X141313177Y-79217884D01*
X141324769Y-79225032D01*
X141335837Y-79232629D01*
X141346380Y-79240675D01*
X141356399Y-79249169D01*
X141365893Y-79258113D01*
X141374837Y-79267466D01*
X141383204Y-79277189D01*
X141390994Y-79287281D01*
X141398207Y-79297743D01*
X141404843Y-79308575D01*
X141410901Y-79319776D01*
X141416383Y-79331347D01*
X141421288Y-79343287D01*
X141425615Y-79355597D01*
X141429366Y-79368276D01*
X141432540Y-79381325D01*
X141435136Y-79394744D01*
X141437156Y-79408533D01*
X141438598Y-79422691D01*
X141439464Y-79437218D01*
X141439752Y-79452115D01*
X141439353Y-79471650D01*
X141438154Y-79490644D01*
X141436156Y-79509097D01*
X141433359Y-79527009D01*
X141429763Y-79544381D01*
X141425368Y-79561212D01*
X141420174Y-79577502D01*
X141414180Y-79593251D01*
X141407388Y-79608460D01*
X141399796Y-79623127D01*
X141391405Y-79637254D01*
X141382215Y-79650840D01*
X141372226Y-79663886D01*
X141361438Y-79676391D01*
X141349850Y-79688354D01*
X141337464Y-79699778D01*
X141324372Y-79710582D01*
X141310669Y-79720689D01*
X141296354Y-79730099D01*
X141281428Y-79738812D01*
X141265891Y-79746828D01*
X141249742Y-79754147D01*
X141232982Y-79760769D01*
X141215611Y-79766694D01*
X141197628Y-79771922D01*
X141179034Y-79776453D01*
X141159828Y-79780286D01*
X141140012Y-79783423D01*
X141119583Y-79785863D01*
X141098544Y-79787605D01*
X141076893Y-79788651D01*
X141054630Y-79789000D01*
X140574840Y-79789000D01*
X140574840Y-79272401D01*
X140818106Y-79272401D01*
X140818106Y-79593410D01*
X141030011Y-79593410D01*
X141049957Y-79592770D01*
X141068616Y-79590850D01*
X141085989Y-79587650D01*
X141102075Y-79583170D01*
X141116873Y-79577410D01*
X141130385Y-79570370D01*
X141142610Y-79562050D01*
X141153549Y-79552450D01*
X141163200Y-79541570D01*
X141171565Y-79529411D01*
X141178642Y-79515971D01*
X141184433Y-79501251D01*
X141188937Y-79485251D01*
X141192154Y-79467971D01*
X141194085Y-79449411D01*
X141194728Y-79429572D01*
X141194344Y-79415710D01*
X141193193Y-79402461D01*
X141191274Y-79389827D01*
X141187521Y-79373936D01*
X141182403Y-79359137D01*
X141175921Y-79345429D01*
X141168074Y-79332813D01*
X141158862Y-79321288D01*
X141151057Y-79313361D01*
X141139522Y-79303761D01*
X141126749Y-79295441D01*
X141112740Y-79288401D01*
X141101422Y-79283961D01*
X141089409Y-79280241D01*
X141076699Y-79277241D01*
X141063295Y-79274961D01*
X141049195Y-79273401D01*
X141034399Y-79272561D01*
X141024149Y-79272401D01*
X140818106Y-79272401D01*
X140574840Y-79272401D01*
X140574840Y-78785650D01*
X140818106Y-78785650D01*
X140818106Y-79077764D01*
X140992202Y-79077764D01*
X141008670Y-79077195D01*
X141024076Y-79075487D01*
X141038419Y-79072641D01*
X141051699Y-79068656D01*
X141063918Y-79063532D01*
X141075073Y-79057270D01*
X141085167Y-79049869D01*
X141094198Y-79041329D01*
X141102166Y-79031651D01*
X141109072Y-79020835D01*
X141114916Y-79008880D01*
X141119697Y-78995786D01*
X141123415Y-78981553D01*
X141126071Y-78966182D01*
X141127665Y-78949673D01*
X141128196Y-78932025D01*
X141127658Y-78914300D01*
X141126044Y-78897718D01*
X141123353Y-78882280D01*
X141119587Y-78867986D01*
X141114744Y-78854835D01*
X141108825Y-78842828D01*
X141101830Y-78831964D01*
X141093758Y-78822244D01*
X141084610Y-78813667D01*
X141074387Y-78806234D01*
X141063086Y-78799944D01*
X141050710Y-78794798D01*
X141037258Y-78790796D01*
X141022729Y-78787937D01*
X141007124Y-78786222D01*
X140990443Y-78785650D01*
X140818106Y-78785650D01*
X140574840Y-78785650D01*
X140574840Y-78590060D01*
X141007736Y-78590060D01*
X141029854Y-78590369D01*
G37*
G36*
X135553636Y-78584488D02*
G01*
X135570144Y-78584919D01*
X135586385Y-78585637D01*
X135602359Y-78586642D01*
X135618066Y-78587934D01*
X135633507Y-78589513D01*
X135648680Y-78591380D01*
X135663587Y-78593533D01*
X135678228Y-78595974D01*
X135692601Y-78598701D01*
X135706708Y-78601716D01*
X135720548Y-78605018D01*
X135734121Y-78608607D01*
X135747428Y-78612484D01*
X135760467Y-78616647D01*
X135773240Y-78621097D01*
X135785746Y-78625835D01*
X135797986Y-78630860D01*
X135809959Y-78636172D01*
X135821664Y-78641771D01*
X135833104Y-78647657D01*
X135844276Y-78653830D01*
X135855182Y-78660290D01*
X135865821Y-78667038D01*
X135876193Y-78674073D01*
X135886298Y-78681394D01*
X135896137Y-78689003D01*
X135905708Y-78696899D01*
X135915013Y-78705082D01*
X135924052Y-78713553D01*
X135932823Y-78722310D01*
X135941328Y-78731355D01*
X135949569Y-78740672D01*
X135957548Y-78750287D01*
X135965265Y-78760199D01*
X135972721Y-78770409D01*
X135979915Y-78780917D01*
X135986848Y-78791722D01*
X135993519Y-78802825D01*
X135999928Y-78814226D01*
X136006076Y-78825925D01*
X136011962Y-78837921D01*
X136017587Y-78850215D01*
X136022950Y-78862806D01*
X136028051Y-78875695D01*
X136032891Y-78888882D01*
X136037469Y-78902367D01*
X136041785Y-78916149D01*
X136045840Y-78930229D01*
X136049633Y-78944606D01*
X136053165Y-78959281D01*
X136056435Y-78974254D01*
X136059444Y-78989525D01*
X136062191Y-79005093D01*
X136064676Y-79020959D01*
X136066900Y-79037122D01*
X136068862Y-79053584D01*
X136070562Y-79070342D01*
X136072001Y-79087399D01*
X136073178Y-79104753D01*
X136074094Y-79122405D01*
X136074748Y-79140355D01*
X136075140Y-79158602D01*
X136075271Y-79177147D01*
X136075147Y-79195449D01*
X136074774Y-79213485D01*
X136074153Y-79231254D01*
X136073283Y-79248756D01*
X136072165Y-79265992D01*
X136070799Y-79282961D01*
X136069184Y-79299664D01*
X136067321Y-79316100D01*
X136065209Y-79332269D01*
X136062849Y-79348171D01*
X136060240Y-79363807D01*
X136057383Y-79379176D01*
X136054278Y-79394278D01*
X136050924Y-79409114D01*
X136047321Y-79423683D01*
X136043471Y-79437986D01*
X136039371Y-79452022D01*
X136035024Y-79465791D01*
X136030427Y-79479293D01*
X136025583Y-79492529D01*
X136020490Y-79505498D01*
X136015148Y-79518201D01*
X136009558Y-79530637D01*
X136003720Y-79542806D01*
X135997633Y-79554708D01*
X135991298Y-79566344D01*
X135984714Y-79577713D01*
X135977882Y-79588816D01*
X135970802Y-79599652D01*
X135963473Y-79610221D01*
X135955895Y-79620523D01*
X135948069Y-79630559D01*
X135940032Y-79640307D01*
X135931784Y-79649745D01*
X135923326Y-79658874D01*
X135914657Y-79667694D01*
X135905777Y-79676204D01*
X135896687Y-79684404D01*
X135887386Y-79692295D01*
X135877874Y-79699877D01*
X135868151Y-79707149D01*
X135858218Y-79714112D01*
X135848075Y-79720765D01*
X135837720Y-79727109D01*
X135827155Y-79733143D01*
X135816380Y-79738868D01*
X135805393Y-79744283D01*
X135794196Y-79749389D01*
X135782789Y-79754186D01*
X135771170Y-79758673D01*
X135759341Y-79762851D01*
X135747302Y-79766719D01*
X135735051Y-79770278D01*
X135722590Y-79773527D01*
X135709919Y-79776467D01*
X135697036Y-79779097D01*
X135683944Y-79781418D01*
X135670640Y-79783429D01*
X135657126Y-79785131D01*
X135643401Y-79786524D01*
X135629465Y-79787607D01*
X135615319Y-79788381D01*
X135600962Y-79788845D01*
X135586394Y-79789000D01*
X135239374Y-79789000D01*
X135239374Y-78787872D01*
X135482347Y-78787872D01*
X135482347Y-79585472D01*
X135566464Y-79585472D01*
X135582693Y-79585073D01*
X135598407Y-79583877D01*
X135613605Y-79581883D01*
X135628288Y-79579092D01*
X135642456Y-79575503D01*
X135656109Y-79571117D01*
X135669247Y-79565933D01*
X135681869Y-79559952D01*
X135693976Y-79553173D01*
X135705568Y-79545596D01*
X135716645Y-79537223D01*
X135727207Y-79528051D01*
X135737253Y-79518082D01*
X135746784Y-79507316D01*
X135755800Y-79495752D01*
X135764301Y-79483391D01*
X135772287Y-79470232D01*
X135779757Y-79456275D01*
X135786712Y-79441521D01*
X135793152Y-79425970D01*
X135799077Y-79409621D01*
X135804487Y-79392474D01*
X135809381Y-79374531D01*
X135813760Y-79355789D01*
X135817624Y-79336250D01*
X135820973Y-79315914D01*
X135823807Y-79294779D01*
X135826125Y-79272848D01*
X135827928Y-79250119D01*
X135829216Y-79226592D01*
X135829989Y-79202268D01*
X135830247Y-79177147D01*
X135829971Y-79152252D01*
X135829143Y-79128210D01*
X135827763Y-79105021D01*
X135825832Y-79082686D01*
X135823349Y-79061204D01*
X135820313Y-79040575D01*
X135816727Y-79020800D01*
X135812588Y-79001878D01*
X135807897Y-78983809D01*
X135802655Y-78966594D01*
X135796860Y-78950232D01*
X135790514Y-78934724D01*
X135783616Y-78920068D01*
X135776167Y-78906266D01*
X135768165Y-78893317D01*
X135759612Y-78881222D01*
X135750482Y-78869918D01*
X135740680Y-78859343D01*
X135730204Y-78849498D01*
X135719055Y-78840382D01*
X135707233Y-78831995D01*
X135694738Y-78824337D01*
X135681569Y-78817409D01*
X135667727Y-78811210D01*
X135653212Y-78805740D01*
X135638024Y-78801000D01*
X135622163Y-78796989D01*
X135605629Y-78793707D01*
X135588421Y-78791154D01*
X135570540Y-78789331D01*
X135551986Y-78788237D01*
X135532759Y-78787872D01*
X135482347Y-78787872D01*
X135239374Y-78787872D01*
X135239374Y-78584345D01*
X135536862Y-78584345D01*
X135553636Y-78584488D01*
G37*
G36*
X136657307Y-78590154D02*
G01*
X136670255Y-78590436D01*
X136683005Y-78590906D01*
X136695558Y-78591563D01*
X136707913Y-78592409D01*
X136720071Y-78593442D01*
X136732031Y-78594664D01*
X136743794Y-78596073D01*
X136766727Y-78599455D01*
X136788871Y-78603589D01*
X136810224Y-78608475D01*
X136830787Y-78614112D01*
X136850561Y-78620501D01*
X136869544Y-78627641D01*
X136887738Y-78635533D01*
X136905141Y-78644177D01*
X136921754Y-78653572D01*
X136937578Y-78663719D01*
X136952611Y-78674617D01*
X136966855Y-78686267D01*
X136980271Y-78698601D01*
X136992821Y-78711629D01*
X137004506Y-78725352D01*
X137015325Y-78739769D01*
X137025279Y-78754881D01*
X137034367Y-78770687D01*
X137042589Y-78787188D01*
X137049946Y-78804383D01*
X137056438Y-78822273D01*
X137062064Y-78840858D01*
X137066824Y-78860137D01*
X137070719Y-78880111D01*
X137073749Y-78900779D01*
X137075913Y-78922142D01*
X137077211Y-78944199D01*
X137077644Y-78966951D01*
X137077447Y-78981644D01*
X137076856Y-78996113D01*
X137075871Y-79010359D01*
X137074493Y-79024382D01*
X137072721Y-79038182D01*
X137070554Y-79051758D01*
X137067994Y-79065111D01*
X137065041Y-79078241D01*
X137061693Y-79091147D01*
X137057952Y-79103830D01*
X137053816Y-79116290D01*
X137049287Y-79128527D01*
X137044364Y-79140541D01*
X137039047Y-79152331D01*
X137033336Y-79163898D01*
X137027232Y-79175242D01*
X137020791Y-79186313D01*
X137013997Y-79197061D01*
X137006851Y-79207487D01*
X136999352Y-79217590D01*
X136991500Y-79227371D01*
X136983296Y-79236830D01*
X136974739Y-79245966D01*
X136965829Y-79254779D01*
X136956567Y-79263270D01*
X136946952Y-79271439D01*
X136936985Y-79279285D01*
X136926665Y-79286809D01*
X136915992Y-79294010D01*
X136904967Y-79300889D01*
X136893589Y-79307445D01*
X136881859Y-79313678D01*
X136869805Y-79319561D01*
X136857459Y-79325064D01*
X136844819Y-79330188D01*
X136831886Y-79334932D01*
X136818661Y-79339297D01*
X136805142Y-79343282D01*
X136791330Y-79346887D01*
X136777225Y-79350113D01*
X136762827Y-79352960D01*
X136748136Y-79355427D01*
X136733151Y-79357514D01*
X136717874Y-79359222D01*
X136702303Y-79360551D01*
X136686440Y-79361499D01*
X136670283Y-79362069D01*
X136653833Y-79362258D01*
X136491461Y-79362258D01*
X136491461Y-79789000D01*
X136248488Y-79789000D01*
X136248488Y-78794540D01*
X136491461Y-78794540D01*
X136491461Y-79159683D01*
X136623352Y-79159683D01*
X136636751Y-79159497D01*
X136649689Y-79158939D01*
X136662167Y-79158009D01*
X136674185Y-79156707D01*
X136691349Y-79154056D01*
X136707477Y-79150567D01*
X136722570Y-79146242D01*
X136736627Y-79141079D01*
X136749649Y-79135079D01*
X136761635Y-79128242D01*
X136772586Y-79120568D01*
X136782501Y-79112056D01*
X136791510Y-79102673D01*
X136799633Y-79092503D01*
X136806869Y-79081546D01*
X136813220Y-79069802D01*
X136818685Y-79057271D01*
X136823263Y-79043953D01*
X136826955Y-79029848D01*
X136829762Y-79014956D01*
X136831682Y-78999277D01*
X136832715Y-78982811D01*
X136832912Y-78971397D01*
X136832436Y-78953960D01*
X136831006Y-78937488D01*
X136828623Y-78921982D01*
X136825287Y-78907442D01*
X136820998Y-78893867D01*
X136815756Y-78881258D01*
X136809561Y-78869614D01*
X136802412Y-78858936D01*
X136794311Y-78849224D01*
X136785256Y-78840477D01*
X136778690Y-78835182D01*
X136768105Y-78827919D01*
X136756571Y-78821370D01*
X136744090Y-78815536D01*
X136730660Y-78810416D01*
X136716282Y-78806011D01*
X136700957Y-78802319D01*
X136684684Y-78799343D01*
X136667462Y-78797080D01*
X136655455Y-78795969D01*
X136643026Y-78795175D01*
X136630175Y-78794699D01*
X136616904Y-78794540D01*
X136491461Y-78794540D01*
X136248488Y-78794540D01*
X136248488Y-78590060D01*
X136644161Y-78590060D01*
X136657307Y-78590154D01*
G37*
G36*
X143188314Y-79184132D02*
G01*
X143188540Y-79208819D01*
X143189216Y-79232791D01*
X143190344Y-79256049D01*
X143191923Y-79278593D01*
X143193953Y-79300422D01*
X143196434Y-79321537D01*
X143199366Y-79341937D01*
X143202749Y-79361623D01*
X143206583Y-79380595D01*
X143210869Y-79398852D01*
X143215605Y-79416395D01*
X143220792Y-79433223D01*
X143226431Y-79449337D01*
X143232521Y-79464737D01*
X143239061Y-79479422D01*
X143246053Y-79493392D01*
X143253492Y-79506542D01*
X143261372Y-79518843D01*
X143269694Y-79530296D01*
X143278458Y-79540901D01*
X143287664Y-79550657D01*
X143297312Y-79559565D01*
X143307402Y-79567624D01*
X143317934Y-79574835D01*
X143328908Y-79581198D01*
X143340323Y-79586712D01*
X143352181Y-79591378D01*
X143364480Y-79595196D01*
X143377222Y-79598165D01*
X143390405Y-79600286D01*
X143404031Y-79601559D01*
X143418098Y-79601983D01*
X143434533Y-79601126D01*
X143450425Y-79598555D01*
X143465774Y-79594269D01*
X143480581Y-79588270D01*
X143494845Y-79580557D01*
X143508567Y-79571129D01*
X143521746Y-79559988D01*
X143534382Y-79547132D01*
X143546475Y-79532562D01*
X143558026Y-79516278D01*
X143569034Y-79498280D01*
X143579500Y-79478568D01*
X143589422Y-79457142D01*
X143598802Y-79434002D01*
X143603289Y-79421789D01*
X143607640Y-79409148D01*
X143611855Y-79396078D01*
X143615935Y-79382579D01*
X143841029Y-79429254D01*
X143833977Y-79452637D01*
X143826522Y-79475278D01*
X143818665Y-79497176D01*
X143810405Y-79518332D01*
X143801743Y-79538746D01*
X143792679Y-79558417D01*
X143783212Y-79577346D01*
X143773343Y-79595533D01*
X143763071Y-79612978D01*
X143752397Y-79629680D01*
X143741321Y-79645640D01*
X143729842Y-79660857D01*
X143717960Y-79675332D01*
X143705677Y-79689065D01*
X143692990Y-79702056D01*
X143679902Y-79714304D01*
X143666411Y-79725810D01*
X143652517Y-79736573D01*
X143638221Y-79746595D01*
X143623523Y-79755874D01*
X143608422Y-79764410D01*
X143592919Y-79772205D01*
X143577013Y-79779257D01*
X143560705Y-79785566D01*
X143543995Y-79791134D01*
X143526882Y-79795959D01*
X143509366Y-79800042D01*
X143491449Y-79803382D01*
X143473128Y-79805980D01*
X143454406Y-79807836D01*
X143435281Y-79808949D01*
X143415753Y-79809321D01*
X143401389Y-79809165D01*
X143387240Y-79808699D01*
X143373305Y-79807922D01*
X143359585Y-79806835D01*
X143346080Y-79805437D01*
X143332789Y-79803728D01*
X143319713Y-79801709D01*
X143306851Y-79799378D01*
X143294205Y-79796737D01*
X143281773Y-79793786D01*
X143269555Y-79790524D01*
X143257552Y-79786951D01*
X143245764Y-79783067D01*
X143234191Y-79778872D01*
X143222832Y-79774367D01*
X143211688Y-79769552D01*
X143200759Y-79764425D01*
X143190044Y-79758988D01*
X143179544Y-79753240D01*
X143159188Y-79740812D01*
X143139691Y-79727142D01*
X143121052Y-79712229D01*
X143103272Y-79696073D01*
X143086350Y-79678674D01*
X143078211Y-79669508D01*
X143070287Y-79660032D01*
X143062578Y-79650245D01*
X143055095Y-79640139D01*
X143047849Y-79629746D01*
X143040841Y-79619064D01*
X143034070Y-79608095D01*
X143027537Y-79596838D01*
X143021242Y-79585293D01*
X143015184Y-79573461D01*
X143009364Y-79561341D01*
X143003781Y-79548933D01*
X142998436Y-79536237D01*
X142993328Y-79523254D01*
X142988458Y-79509983D01*
X142983825Y-79496424D01*
X142979430Y-79482577D01*
X142975273Y-79468443D01*
X142971353Y-79454020D01*
X142967671Y-79439311D01*
X142964226Y-79424313D01*
X142961019Y-79409027D01*
X142958050Y-79393454D01*
X142955318Y-79377593D01*
X142952823Y-79361445D01*
X142950566Y-79345008D01*
X142948547Y-79328284D01*
X142946765Y-79311272D01*
X142945221Y-79293973D01*
X142943915Y-79276385D01*
X142942846Y-79258510D01*
X142942014Y-79240347D01*
X142941420Y-79221897D01*
X142941064Y-79203158D01*
X142940945Y-79184132D01*
X142941402Y-79146333D01*
X142942775Y-79109733D01*
X142945062Y-79074333D01*
X142948263Y-79040134D01*
X142952380Y-79007134D01*
X142957411Y-78975335D01*
X142963357Y-78944735D01*
X142970218Y-78915335D01*
X142977993Y-78887136D01*
X142986683Y-78860136D01*
X142996288Y-78834336D01*
X143006808Y-78809736D01*
X143018243Y-78786337D01*
X143030592Y-78764137D01*
X143043856Y-78743137D01*
X143058035Y-78723337D01*
X143073129Y-78704738D01*
X143089137Y-78687338D01*
X143106060Y-78671138D01*
X143123898Y-78656138D01*
X143142651Y-78642338D01*
X143162318Y-78629739D01*
X143182901Y-78618339D01*
X143204398Y-78608139D01*
X143226809Y-78599139D01*
X143250136Y-78591339D01*
X143274377Y-78584739D01*
X143299533Y-78579339D01*
X143325604Y-78575139D01*
X143352590Y-78572139D01*
X143380490Y-78570339D01*
X143409305Y-78569739D01*
X143428271Y-78570082D01*
X143446848Y-78571108D01*
X143465036Y-78572820D01*
X143482834Y-78575216D01*
X143500244Y-78578297D01*
X143517264Y-78582063D01*
X143533894Y-78586513D01*
X143550136Y-78591648D01*
X143565988Y-78597467D01*
X143581451Y-78603971D01*
X143596524Y-78611160D01*
X143611209Y-78619034D01*
X143625504Y-78627592D01*
X143639409Y-78636834D01*
X143652926Y-78646762D01*
X143666053Y-78657374D01*
X143678772Y-78668621D01*
X143691062Y-78680532D01*
X143702924Y-78693109D01*
X143714358Y-78706350D01*
X143725364Y-78720257D01*
X143735942Y-78734828D01*
X143746091Y-78750063D01*
X143755812Y-78765964D01*
X143765106Y-78782529D01*
X143773970Y-78799759D01*
X143782407Y-78817654D01*
X143790416Y-78836214D01*
X143797996Y-78855439D01*
X143805148Y-78875328D01*
X143811872Y-78895882D01*
X143818168Y-78917101D01*
X143593953Y-78976159D01*
X143589238Y-78958792D01*
X143584106Y-78942173D01*
X143578556Y-78926301D01*
X143572589Y-78911178D01*
X143566205Y-78896802D01*
X143559403Y-78883174D01*
X143552185Y-78870294D01*
X143544549Y-78858163D01*
X143536495Y-78846778D01*
X143528024Y-78836142D01*
X143522145Y-78829467D01*
X143513064Y-78820104D01*
X143503736Y-78811663D01*
X143494160Y-78804142D01*
X143481007Y-78795547D01*
X143467415Y-78788588D01*
X143453383Y-78783268D01*
X143438912Y-78779584D01*
X143424001Y-78777537D01*
X143412529Y-78777077D01*
X143398735Y-78777474D01*
X143385378Y-78778667D01*
X143372459Y-78780655D01*
X143359979Y-78783437D01*
X143347936Y-78787015D01*
X143336331Y-78791387D01*
X143325164Y-78796555D01*
X143314435Y-78802518D01*
X143304144Y-78809276D01*
X143294291Y-78816828D01*
X143284876Y-78825176D01*
X143275898Y-78834319D01*
X143267359Y-78844257D01*
X143259257Y-78854990D01*
X143251594Y-78866518D01*
X143244368Y-78878841D01*
X143237580Y-78891959D01*
X143231230Y-78905872D01*
X143225318Y-78920580D01*
X143219844Y-78936083D01*
X143214808Y-78952381D01*
X143210210Y-78969474D01*
X143206050Y-78987362D01*
X143202328Y-79006045D01*
X143199043Y-79025524D01*
X143196197Y-79045797D01*
X143193788Y-79066865D01*
X143191818Y-79088729D01*
X143190285Y-79111387D01*
X143189190Y-79134840D01*
X143188533Y-79159089D01*
X143188314Y-79184132D01*
G37*
D10*
X149733095Y-101943819D02*
X149733095Y-102753342D01*
X149733095Y-102753342D02*
X149780714Y-102848580D01*
X149780714Y-102848580D02*
X149828333Y-102896200D01*
X149828333Y-102896200D02*
X149923571Y-102943819D01*
X149923571Y-102943819D02*
X150114047Y-102943819D01*
X150114047Y-102943819D02*
X150209285Y-102896200D01*
X150209285Y-102896200D02*
X150256904Y-102848580D01*
X150256904Y-102848580D02*
X150304523Y-102753342D01*
X150304523Y-102753342D02*
X150304523Y-101943819D01*
X151304523Y-102943819D02*
X150733095Y-102943819D01*
X151018809Y-102943819D02*
X151018809Y-101943819D01*
X151018809Y-101943819D02*
X150923571Y-102086676D01*
X150923571Y-102086676D02*
X150828333Y-102181914D01*
X150828333Y-102181914D02*
X150733095Y-102229533D01*
X130476666Y-101943819D02*
X130476666Y-102658104D01*
X130476666Y-102658104D02*
X130429047Y-102800961D01*
X130429047Y-102800961D02*
X130333809Y-102896200D01*
X130333809Y-102896200D02*
X130190952Y-102943819D01*
X130190952Y-102943819D02*
X130095714Y-102943819D01*
X131381428Y-102277152D02*
X131381428Y-102943819D01*
X131143333Y-101896200D02*
X130905238Y-102610485D01*
X130905238Y-102610485D02*
X131524285Y-102610485D01*
X127936666Y-101943819D02*
X127936666Y-102658104D01*
X127936666Y-102658104D02*
X127889047Y-102800961D01*
X127889047Y-102800961D02*
X127793809Y-102896200D01*
X127793809Y-102896200D02*
X127650952Y-102943819D01*
X127650952Y-102943819D02*
X127555714Y-102943819D01*
X128317619Y-101943819D02*
X128936666Y-101943819D01*
X128936666Y-101943819D02*
X128603333Y-102324771D01*
X128603333Y-102324771D02*
X128746190Y-102324771D01*
X128746190Y-102324771D02*
X128841428Y-102372390D01*
X128841428Y-102372390D02*
X128889047Y-102420009D01*
X128889047Y-102420009D02*
X128936666Y-102515247D01*
X128936666Y-102515247D02*
X128936666Y-102753342D01*
X128936666Y-102753342D02*
X128889047Y-102848580D01*
X128889047Y-102848580D02*
X128841428Y-102896200D01*
X128841428Y-102896200D02*
X128746190Y-102943819D01*
X128746190Y-102943819D02*
X128460476Y-102943819D01*
X128460476Y-102943819D02*
X128365238Y-102896200D01*
X128365238Y-102896200D02*
X128317619Y-102848580D01*
D11*
X138176095Y-101946419D02*
X138176095Y-102755942D01*
X138176095Y-102755942D02*
X138223714Y-102851180D01*
X138223714Y-102851180D02*
X138271333Y-102898800D01*
X138271333Y-102898800D02*
X138366571Y-102946419D01*
X138366571Y-102946419D02*
X138557047Y-102946419D01*
X138557047Y-102946419D02*
X138652285Y-102898800D01*
X138652285Y-102898800D02*
X138699904Y-102851180D01*
X138699904Y-102851180D02*
X138747523Y-102755942D01*
X138747523Y-102755942D02*
X138747523Y-101946419D01*
X139176095Y-102041657D02*
X139223714Y-101994038D01*
X139223714Y-101994038D02*
X139318952Y-101946419D01*
X139318952Y-101946419D02*
X139557047Y-101946419D01*
X139557047Y-101946419D02*
X139652285Y-101994038D01*
X139652285Y-101994038D02*
X139699904Y-102041657D01*
X139699904Y-102041657D02*
X139747523Y-102136895D01*
X139747523Y-102136895D02*
X139747523Y-102232133D01*
X139747523Y-102232133D02*
X139699904Y-102374990D01*
X139699904Y-102374990D02*
X139128476Y-102946419D01*
X139128476Y-102946419D02*
X139747523Y-102946419D01*
D10*
X130476666Y-84671819D02*
X130476666Y-85386104D01*
X130476666Y-85386104D02*
X130429047Y-85528961D01*
X130429047Y-85528961D02*
X130333809Y-85624200D01*
X130333809Y-85624200D02*
X130190952Y-85671819D01*
X130190952Y-85671819D02*
X130095714Y-85671819D01*
X130905238Y-84767057D02*
X130952857Y-84719438D01*
X130952857Y-84719438D02*
X131048095Y-84671819D01*
X131048095Y-84671819D02*
X131286190Y-84671819D01*
X131286190Y-84671819D02*
X131381428Y-84719438D01*
X131381428Y-84719438D02*
X131429047Y-84767057D01*
X131429047Y-84767057D02*
X131476666Y-84862295D01*
X131476666Y-84862295D02*
X131476666Y-84957533D01*
X131476666Y-84957533D02*
X131429047Y-85100390D01*
X131429047Y-85100390D02*
X130857619Y-85671819D01*
X130857619Y-85671819D02*
X131476666Y-85671819D01*
D13*
%TO.C,U1*%
X147845000Y-81220000D02*
X147845000Y-101660000D01*
X147845000Y-101660000D02*
X153145000Y-101660000D01*
X149495000Y-81220000D02*
X147845000Y-81220000D01*
X153145000Y-81220000D02*
X151495000Y-81220000D01*
X153145000Y-101660000D02*
X153145000Y-81220000D01*
X149495000Y-81220000D02*
G75*
G03*
X151495000Y-81220000I1000000J0D01*
G01*
%TO.C,J4*%
X129480000Y-93935000D02*
X130810000Y-93935000D01*
X129480000Y-95265000D02*
X129480000Y-93935000D01*
X129480000Y-96535000D02*
X129480000Y-101675000D01*
X129480000Y-96535000D02*
X132140000Y-96535000D01*
X129480000Y-101675000D02*
X132140000Y-101675000D01*
X132140000Y-96535000D02*
X132140000Y-101675000D01*
%TO.C,J3*%
X126940000Y-93935000D02*
X128270000Y-93935000D01*
X126940000Y-95265000D02*
X126940000Y-93935000D01*
X126940000Y-96535000D02*
X126940000Y-101675000D01*
X126940000Y-96535000D02*
X129600000Y-96535000D01*
X126940000Y-101675000D02*
X129600000Y-101675000D01*
X129600000Y-96535000D02*
X129600000Y-101675000D01*
D11*
%TO.C,U2*%
X132765000Y-82575000D02*
X145365000Y-82575000D01*
X145365000Y-82575000D02*
X145365000Y-101575000D01*
X145365000Y-101575000D02*
X132765000Y-101575000D01*
X132765000Y-101575000D02*
X132765000Y-82575000D01*
D13*
%TO.C,J2*%
X129480000Y-86315000D02*
X130810000Y-86315000D01*
X129480000Y-87645000D02*
X129480000Y-86315000D01*
X129480000Y-88915000D02*
X129480000Y-94055000D01*
X129480000Y-88915000D02*
X132140000Y-88915000D01*
X129480000Y-94055000D02*
X132140000Y-94055000D01*
X132140000Y-88915000D02*
X132140000Y-94055000D01*
%TD*%
M02*
