%TF.GenerationSoftware,KiCad,Pcbnew,7.0.8-7.0.8~ubuntu23.04.1*%
%TF.CreationDate,2023-10-03T20:58:01+04:00*%
%TF.ProjectId,7segment_breakout,37736567-6d65-46e7-945f-627265616b6f,rev?*%
%TF.SameCoordinates,Original*%
%TF.FileFunction,Soldermask,Top*%
%TF.FilePolarity,Negative*%
%FSLAX46Y46*%
G04 Gerber Fmt 4.6, Leading zero omitted, Abs format (unit mm)*
G04 Created by KiCad (PCBNEW 7.0.8-7.0.8~ubuntu23.04.1) date 2023-10-03 20:58:01*
%MOMM*%
%LPD*%
G01*
G04 APERTURE LIST*
%ADD10R,1.600000X1.600000*%
%ADD11O,1.600000X1.600000*%
%ADD12C,2.200000*%
%ADD13R,1.700000X1.700000*%
%ADD14O,1.700000X1.700000*%
%ADD15C,1.524000*%
G04 APERTURE END LIST*
D10*
%TO.C,U1*%
X146685000Y-82550000D03*
D11*
X146685000Y-85090000D03*
X146685000Y-87630000D03*
X146685000Y-90170000D03*
X146685000Y-92710000D03*
X146685000Y-95250000D03*
X146685000Y-97790000D03*
X146685000Y-100330000D03*
X154305000Y-100330000D03*
X154305000Y-97790000D03*
X154305000Y-95250000D03*
X154305000Y-92710000D03*
X154305000Y-90170000D03*
X154305000Y-87630000D03*
X154305000Y-85090000D03*
X154305000Y-82550000D03*
%TD*%
D12*
%TO.C,H2*%
X153670000Y-76835000D03*
%TD*%
%TO.C,H1*%
X128270000Y-76835000D03*
%TD*%
D13*
%TO.C,J4*%
X130810000Y-95265000D03*
D14*
X130810000Y-97805000D03*
X130810000Y-100345000D03*
%TD*%
D13*
%TO.C,J3*%
X128270000Y-95265000D03*
D14*
X128270000Y-97805000D03*
X128270000Y-100345000D03*
%TD*%
D15*
%TO.C,U2*%
X133985000Y-99695000D03*
X136525000Y-99695000D03*
X139065000Y-99695000D03*
X141605000Y-99695000D03*
X144145000Y-99695000D03*
X144145000Y-84455000D03*
X141605000Y-84455000D03*
X139065000Y-84455000D03*
X136525000Y-84455000D03*
X133985000Y-84455000D03*
%TD*%
D13*
%TO.C,J2*%
X130810000Y-87645000D03*
D14*
X130810000Y-90185000D03*
X130810000Y-92725000D03*
%TD*%
D13*
%TO.C,J5*%
X148595000Y-77470000D03*
D14*
X146055000Y-77470000D03*
X143515000Y-77470000D03*
X140975000Y-77470000D03*
X138435000Y-77470000D03*
X135895000Y-77470000D03*
X133355000Y-77470000D03*
%TD*%
M02*
